<?xml version="1.0" encoding="UTF-8"?>
<svg width="1200pt" height="1200pt" version="1.1" viewBox="0 0 1200 1200" xmlns="http://www.w3.org/2000/svg">
 <g fill="#fff">
  <path d="m279.6 14.398c0 7.9531-6.4492 14.402-14.402 14.402s-14.398-6.4492-14.398-14.402c0-7.9531 6.4453-14.398 14.398-14.398s14.402 6.4453 14.402 14.398"/>
  <path d="m321.6 14.398c0 7.9531-6.4492 14.402-14.402 14.402s-14.398-6.4492-14.398-14.402c0-7.9531 6.4453-14.398 14.398-14.398s14.402 6.4453 14.402 14.398"/>
  <path d="m363.6 14.398c0 7.9531-6.4492 14.402-14.402 14.402s-14.398-6.4492-14.398-14.402c0-7.9531 6.4453-14.398 14.398-14.398s14.402 6.4453 14.402 14.398"/>
  <path d="m405.6 14.398c0 7.9531-6.4492 14.402-14.402 14.402s-14.398-6.4492-14.398-14.402c0-7.9531 6.4453-14.398 14.398-14.398s14.402 6.4453 14.402 14.398"/>
  <path d="m447.6 14.398c0 7.9531-6.4492 14.402-14.402 14.402s-14.398-6.4492-14.398-14.402c0-7.9531 6.4453-14.398 14.398-14.398s14.402 6.4453 14.402 14.398"/>
  <path d="m488.4 14.398c0 7.9531-6.4453 14.402-14.398 14.402s-14.398-6.4492-14.398-14.402c0-7.9531 6.4453-14.398 14.398-14.398s14.398 6.4453 14.398 14.398"/>
  <path d="m530.4 14.398c0 7.9531-6.4453 14.402-14.398 14.402s-14.398-6.4492-14.398-14.402c0-7.9531 6.4453-14.398 14.398-14.398s14.398 6.4453 14.398 14.398"/>
  <path d="m572.4 14.398c0 7.9531-6.4453 14.402-14.398 14.402s-14.398-6.4492-14.398-14.402c0-7.9531 6.4453-14.398 14.398-14.398s14.398 6.4453 14.398 14.398"/>
  <path d="m614.4 14.398c0 7.9531-6.4453 14.402-14.398 14.402s-14.398-6.4492-14.398-14.402c0-7.9531 6.4453-14.398 14.398-14.398s14.398 6.4453 14.398 14.398"/>
  <path d="m656.4 14.398c0 7.9531-6.4453 14.402-14.398 14.402s-14.398-6.4492-14.398-14.402c0-7.9531 6.4453-14.398 14.398-14.398s14.398 6.4453 14.398 14.398"/>
  <path d="m698.4 14.398c0 7.9531-6.4453 14.402-14.398 14.402s-14.398-6.4492-14.398-14.402c0-7.9531 6.4453-14.398 14.398-14.398s14.398 6.4453 14.398 14.398"/>
  <path d="m740.4 14.398c0 7.9531-6.4453 14.402-14.398 14.402s-14.398-6.4492-14.398-14.402c0-7.9531 6.4453-14.398 14.398-14.398s14.398 6.4453 14.398 14.398"/>
  <path d="m781.2 14.398c0 7.9531-6.4453 14.402-14.398 14.402s-14.402-6.4492-14.402-14.402c0-7.9531 6.4492-14.398 14.402-14.398s14.398 6.4453 14.398 14.398"/>
  <path d="m823.2 14.398c0 7.9531-6.4453 14.402-14.398 14.402s-14.402-6.4492-14.402-14.402c0-7.9531 6.4492-14.398 14.402-14.398s14.398 6.4453 14.398 14.398"/>
  <path d="m865.2 14.398c0 7.9531-6.4453 14.402-14.398 14.402s-14.402-6.4492-14.402-14.402c0-7.9531 6.4492-14.398 14.402-14.398s14.398 6.4453 14.398 14.398"/>
  <path d="m907.2 14.398c0 7.9531-6.4453 14.402-14.398 14.402s-14.402-6.4492-14.402-14.402c0-7.9531 6.4492-14.398 14.402-14.398s14.398 6.4453 14.398 14.398"/>
  <path d="m949.2 14.398c0 7.9531-6.4453 14.402-14.398 14.402s-14.402-6.4492-14.402-14.402c0-7.9531 6.4492-14.398 14.402-14.398s14.398 6.4453 14.398 14.398"/>
  <path d="m279.6 56.398c0 7.9531-6.4492 14.402-14.402 14.402s-14.398-6.4492-14.398-14.402c0-7.9531 6.4453-14.398 14.398-14.398s14.402 6.4453 14.402 14.398"/>
  <path d="m321.6 56.398c0 7.9531-6.4492 14.402-14.402 14.402s-14.398-6.4492-14.398-14.402c0-7.9531 6.4453-14.398 14.398-14.398s14.402 6.4453 14.402 14.398"/>
  <path d="m363.6 56.398c0 7.9531-6.4492 14.402-14.402 14.402s-14.398-6.4492-14.398-14.402c0-7.9531 6.4453-14.398 14.398-14.398s14.402 6.4453 14.402 14.398"/>
  <path d="m405.6 56.398c0 7.9531-6.4492 14.402-14.402 14.402s-14.398-6.4492-14.398-14.402c0-7.9531 6.4453-14.398 14.398-14.398s14.402 6.4453 14.402 14.398"/>
  <path d="m447.6 56.398c0 7.9531-6.4492 14.402-14.402 14.402s-14.398-6.4492-14.398-14.402c0-7.9531 6.4453-14.398 14.398-14.398s14.402 6.4453 14.402 14.398"/>
  <path d="m488.4 56.398c0 7.9531-6.4453 14.402-14.398 14.402s-14.398-6.4492-14.398-14.402c0-7.9531 6.4453-14.398 14.398-14.398s14.398 6.4453 14.398 14.398"/>
  <path d="m530.4 56.398c0 7.9531-6.4453 14.402-14.398 14.402s-14.398-6.4492-14.398-14.402c0-7.9531 6.4453-14.398 14.398-14.398s14.398 6.4453 14.398 14.398"/>
  <path d="m572.4 56.398c0 7.9531-6.4453 14.402-14.398 14.402s-14.398-6.4492-14.398-14.402c0-7.9531 6.4453-14.398 14.398-14.398s14.398 6.4453 14.398 14.398"/>
  <path d="m614.4 56.398c0 7.9531-6.4453 14.402-14.398 14.402s-14.398-6.4492-14.398-14.402c0-7.9531 6.4453-14.398 14.398-14.398s14.398 6.4453 14.398 14.398"/>
  <path d="m656.4 56.398c0 7.9531-6.4453 14.402-14.398 14.402s-14.398-6.4492-14.398-14.402c0-7.9531 6.4453-14.398 14.398-14.398s14.398 6.4453 14.398 14.398"/>
  <path d="m698.4 56.398c0 7.9531-6.4453 14.402-14.398 14.402s-14.398-6.4492-14.398-14.402c0-7.9531 6.4453-14.398 14.398-14.398s14.398 6.4453 14.398 14.398"/>
  <path d="m740.4 56.398c0 7.9531-6.4453 14.402-14.398 14.402s-14.398-6.4492-14.398-14.402c0-7.9531 6.4453-14.398 14.398-14.398s14.398 6.4453 14.398 14.398"/>
  <path d="m781.2 56.398c0 7.9531-6.4453 14.402-14.398 14.402s-14.402-6.4492-14.402-14.402c0-7.9531 6.4492-14.398 14.402-14.398s14.398 6.4453 14.398 14.398"/>
  <path d="m823.2 56.398c0 7.9531-6.4453 14.402-14.398 14.402s-14.402-6.4492-14.402-14.402c0-7.9531 6.4492-14.398 14.402-14.398s14.398 6.4453 14.398 14.398"/>
  <path d="m865.2 56.398c0 7.9531-6.4453 14.402-14.398 14.402s-14.402-6.4492-14.402-14.402c0-7.9531 6.4492-14.398 14.402-14.398s14.398 6.4453 14.398 14.398"/>
  <path d="m907.2 56.398c0 7.9531-6.4453 14.402-14.398 14.402s-14.402-6.4492-14.402-14.402c0-7.9531 6.4492-14.398 14.402-14.398s14.398 6.4453 14.398 14.398"/>
  <path d="m949.2 56.398c0 7.9531-6.4453 14.402-14.398 14.402s-14.402-6.4492-14.402-14.402c0-7.9531 6.4492-14.398 14.402-14.398s14.398 6.4453 14.398 14.398"/>
  <path d="m279.6 98.398c0 7.9531-6.4492 14.402-14.402 14.402s-14.398-6.4492-14.398-14.402c0-7.9531 6.4453-14.398 14.398-14.398s14.402 6.4453 14.402 14.398"/>
  <path d="m321.6 98.398c0 7.9531-6.4492 14.402-14.402 14.402s-14.398-6.4492-14.398-14.402c0-7.9531 6.4453-14.398 14.398-14.398s14.402 6.4453 14.402 14.398"/>
  <path d="m363.6 98.398c0 7.9531-6.4492 14.402-14.402 14.402s-14.398-6.4492-14.398-14.402c0-7.9531 6.4453-14.398 14.398-14.398s14.402 6.4453 14.402 14.398"/>
  <path d="m405.6 98.398c0 7.9531-6.4492 14.402-14.402 14.402s-14.398-6.4492-14.398-14.402c0-7.9531 6.4453-14.398 14.398-14.398s14.402 6.4453 14.402 14.398"/>
  <path d="m447.6 98.398c0 7.9531-6.4492 14.402-14.402 14.402s-14.398-6.4492-14.398-14.402c0-7.9531 6.4453-14.398 14.398-14.398s14.402 6.4453 14.402 14.398"/>
  <path d="m488.4 98.398c0 7.9531-6.4453 14.402-14.398 14.402s-14.398-6.4492-14.398-14.402c0-7.9531 6.4453-14.398 14.398-14.398s14.398 6.4453 14.398 14.398"/>
  <path d="m530.4 98.398c0 7.9531-6.4453 14.402-14.398 14.402s-14.398-6.4492-14.398-14.402c0-7.9531 6.4453-14.398 14.398-14.398s14.398 6.4453 14.398 14.398"/>
  <path d="m572.4 98.398c0 7.9531-6.4453 14.402-14.398 14.402s-14.398-6.4492-14.398-14.402c0-7.9531 6.4453-14.398 14.398-14.398s14.398 6.4453 14.398 14.398"/>
  <path d="m614.4 98.398c0 7.9531-6.4453 14.402-14.398 14.402s-14.398-6.4492-14.398-14.402c0-7.9531 6.4453-14.398 14.398-14.398s14.398 6.4453 14.398 14.398"/>
  <path d="m656.4 98.398c0 7.9531-6.4453 14.402-14.398 14.402s-14.398-6.4492-14.398-14.402c0-7.9531 6.4453-14.398 14.398-14.398s14.398 6.4453 14.398 14.398"/>
  <path d="m698.4 98.398c0 7.9531-6.4453 14.402-14.398 14.402s-14.398-6.4492-14.398-14.402c0-7.9531 6.4453-14.398 14.398-14.398s14.398 6.4453 14.398 14.398"/>
  <path d="m740.4 98.398c0 7.9531-6.4453 14.402-14.398 14.402s-14.398-6.4492-14.398-14.402c0-7.9531 6.4453-14.398 14.398-14.398s14.398 6.4453 14.398 14.398"/>
  <path d="m781.2 98.398c0 7.9531-6.4453 14.402-14.398 14.402s-14.402-6.4492-14.402-14.402c0-7.9531 6.4492-14.398 14.402-14.398s14.398 6.4453 14.398 14.398"/>
  <path d="m823.2 98.398c0 7.9531-6.4453 14.402-14.398 14.402s-14.402-6.4492-14.402-14.402c0-7.9531 6.4492-14.398 14.402-14.398s14.398 6.4453 14.398 14.398"/>
  <path d="m865.2 98.398c0 7.9531-6.4453 14.402-14.398 14.402s-14.402-6.4492-14.402-14.402c0-7.9531 6.4492-14.398 14.402-14.398s14.398 6.4453 14.398 14.398"/>
  <path d="m907.2 98.398c0 7.9531-6.4453 14.402-14.398 14.402s-14.402-6.4492-14.402-14.402c0-7.9531 6.4492-14.398 14.402-14.398s14.398 6.4453 14.398 14.398"/>
  <path d="m949.2 98.398c0 7.9531-6.4453 14.402-14.398 14.402s-14.402-6.4492-14.402-14.402c0-7.9531 6.4492-14.398 14.402-14.398s14.398 6.4453 14.398 14.398"/>
  <path d="m279.6 140.4c0 7.9531-6.4492 14.402-14.402 14.402s-14.398-6.4492-14.398-14.402c0-7.9531 6.4453-14.398 14.398-14.398s14.402 6.4453 14.402 14.398"/>
  <path d="m321.6 140.4c0 7.9531-6.4492 14.402-14.402 14.402s-14.398-6.4492-14.398-14.402c0-7.9531 6.4453-14.398 14.398-14.398s14.402 6.4453 14.402 14.398"/>
  <path d="m363.6 140.4c0 7.9531-6.4492 14.402-14.402 14.402s-14.398-6.4492-14.398-14.402c0-7.9531 6.4453-14.398 14.398-14.398s14.402 6.4453 14.402 14.398"/>
  <path d="m405.6 140.4c0 7.9531-6.4492 14.402-14.402 14.402s-14.398-6.4492-14.398-14.402c0-7.9531 6.4453-14.398 14.398-14.398s14.402 6.4453 14.402 14.398"/>
  <path d="m447.6 140.4c0 7.9531-6.4492 14.402-14.402 14.402s-14.398-6.4492-14.398-14.402c0-7.9531 6.4453-14.398 14.398-14.398s14.402 6.4453 14.402 14.398"/>
  <path d="m488.4 140.4c0 7.9531-6.4453 14.402-14.398 14.402s-14.398-6.4492-14.398-14.402c0-7.9531 6.4453-14.398 14.398-14.398s14.398 6.4453 14.398 14.398"/>
  <path d="m530.4 140.4c0 7.9531-6.4453 14.402-14.398 14.402s-14.398-6.4492-14.398-14.402c0-7.9531 6.4453-14.398 14.398-14.398s14.398 6.4453 14.398 14.398"/>
  <path d="m572.4 140.4c0 7.9531-6.4453 14.402-14.398 14.402s-14.398-6.4492-14.398-14.402c0-7.9531 6.4453-14.398 14.398-14.398s14.398 6.4453 14.398 14.398"/>
  <path d="m614.4 140.4c0 7.9531-6.4453 14.402-14.398 14.402s-14.398-6.4492-14.398-14.402c0-7.9531 6.4453-14.398 14.398-14.398s14.398 6.4453 14.398 14.398"/>
  <path d="m656.4 140.4c0 7.9531-6.4453 14.402-14.398 14.402s-14.398-6.4492-14.398-14.402c0-7.9531 6.4453-14.398 14.398-14.398s14.398 6.4453 14.398 14.398"/>
  <path d="m698.4 140.4c0 7.9531-6.4453 14.402-14.398 14.402s-14.398-6.4492-14.398-14.402c0-7.9531 6.4453-14.398 14.398-14.398s14.398 6.4453 14.398 14.398"/>
  <path d="m740.4 140.4c0 7.9531-6.4453 14.402-14.398 14.402s-14.398-6.4492-14.398-14.402c0-7.9531 6.4453-14.398 14.398-14.398s14.398 6.4453 14.398 14.398"/>
  <path d="m781.2 140.4c0 7.9531-6.4453 14.402-14.398 14.402s-14.402-6.4492-14.402-14.402c0-7.9531 6.4492-14.398 14.402-14.398s14.398 6.4453 14.398 14.398"/>
  <path d="m823.2 140.4c0 7.9531-6.4453 14.402-14.398 14.402s-14.402-6.4492-14.402-14.402c0-7.9531 6.4492-14.398 14.402-14.398s14.398 6.4453 14.398 14.398"/>
  <path d="m865.2 140.4c0 7.9531-6.4453 14.402-14.398 14.402s-14.402-6.4492-14.402-14.402c0-7.9531 6.4492-14.398 14.402-14.398s14.398 6.4453 14.398 14.398"/>
  <path d="m907.2 140.4c0 7.9531-6.4453 14.402-14.398 14.402s-14.402-6.4492-14.402-14.402c0-7.9531 6.4492-14.398 14.402-14.398s14.398 6.4453 14.398 14.398"/>
  <path d="m279.6 182.4c0 7.9531-6.4492 14.402-14.402 14.402s-14.398-6.4492-14.398-14.402c0-7.9531 6.4453-14.398 14.398-14.398s14.402 6.4453 14.402 14.398"/>
  <path d="m321.6 182.4c0 7.9531-6.4492 14.402-14.402 14.402s-14.398-6.4492-14.398-14.402c0-7.9531 6.4453-14.398 14.398-14.398s14.402 6.4453 14.402 14.398"/>
  <path d="m363.6 182.4c0 7.9531-6.4492 14.402-14.402 14.402s-14.398-6.4492-14.398-14.402c0-7.9531 6.4453-14.398 14.398-14.398s14.402 6.4453 14.402 14.398"/>
  <path d="m405.6 182.4c0 7.9531-6.4492 14.402-14.402 14.402s-14.398-6.4492-14.398-14.402c0-7.9531 6.4453-14.398 14.398-14.398s14.402 6.4453 14.402 14.398"/>
  <path d="m447.6 182.4c0 7.9531-6.4492 14.402-14.402 14.402s-14.398-6.4492-14.398-14.402c0-7.9531 6.4453-14.398 14.398-14.398s14.402 6.4453 14.402 14.398"/>
  <path d="m488.4 182.4c0 7.9531-6.4453 14.402-14.398 14.402s-14.398-6.4492-14.398-14.402c0-7.9531 6.4453-14.398 14.398-14.398s14.398 6.4453 14.398 14.398"/>
  <path d="m530.4 182.4c0 7.9531-6.4453 14.402-14.398 14.402s-14.398-6.4492-14.398-14.402c0-7.9531 6.4453-14.398 14.398-14.398s14.398 6.4453 14.398 14.398"/>
  <path d="m572.4 182.4c0 7.9531-6.4453 14.402-14.398 14.402s-14.398-6.4492-14.398-14.402c0-7.9531 6.4453-14.398 14.398-14.398s14.398 6.4453 14.398 14.398"/>
  <path d="m614.4 182.4c0 7.9531-6.4453 14.402-14.398 14.402s-14.398-6.4492-14.398-14.402c0-7.9531 6.4453-14.398 14.398-14.398s14.398 6.4453 14.398 14.398"/>
  <path d="m656.4 182.4c0 7.9531-6.4453 14.402-14.398 14.402s-14.398-6.4492-14.398-14.402c0-7.9531 6.4453-14.398 14.398-14.398s14.398 6.4453 14.398 14.398"/>
  <path d="m698.4 182.4c0 7.9531-6.4453 14.402-14.398 14.402s-14.398-6.4492-14.398-14.402c0-7.9531 6.4453-14.398 14.398-14.398s14.398 6.4453 14.398 14.398"/>
  <path d="m740.4 182.4c0 7.9531-6.4453 14.402-14.398 14.402s-14.398-6.4492-14.398-14.402c0-7.9531 6.4453-14.398 14.398-14.398s14.398 6.4453 14.398 14.398"/>
  <path d="m781.2 182.4c0 7.9531-6.4453 14.402-14.398 14.402s-14.402-6.4492-14.402-14.402c0-7.9531 6.4492-14.398 14.402-14.398s14.398 6.4453 14.398 14.398"/>
  <path d="m823.2 182.4c0 7.9531-6.4453 14.402-14.398 14.402s-14.402-6.4492-14.402-14.402c0-7.9531 6.4492-14.398 14.402-14.398s14.398 6.4453 14.398 14.398"/>
  <path d="m865.2 182.4c0 7.9531-6.4453 14.402-14.398 14.402s-14.402-6.4492-14.402-14.402c0-7.9531 6.4492-14.398 14.402-14.398s14.398 6.4453 14.398 14.398"/>
  <path d="m907.2 182.4c0 7.9531-6.4453 14.402-14.398 14.402s-14.402-6.4492-14.402-14.402c0-7.9531 6.4492-14.398 14.402-14.398s14.398 6.4453 14.398 14.398"/>
  <path d="m279.6 223.2c0 7.9531-6.4492 14.402-14.402 14.402s-14.398-6.4492-14.398-14.402 6.4453-14.398 14.398-14.398 14.402 6.4453 14.402 14.398"/>
  <path d="m321.6 223.2c0 7.9531-6.4492 14.402-14.402 14.402s-14.398-6.4492-14.398-14.402 6.4453-14.398 14.398-14.398 14.402 6.4453 14.402 14.398"/>
  <path d="m363.6 223.2c0 7.9531-6.4492 14.402-14.402 14.402s-14.398-6.4492-14.398-14.402 6.4453-14.398 14.398-14.398 14.402 6.4453 14.402 14.398"/>
  <path d="m405.6 223.2c0 7.9531-6.4492 14.402-14.402 14.402s-14.398-6.4492-14.398-14.402 6.4453-14.398 14.398-14.398 14.402 6.4453 14.402 14.398"/>
  <path d="m447.6 223.2c0 7.9531-6.4492 14.402-14.402 14.402s-14.398-6.4492-14.398-14.402 6.4453-14.398 14.398-14.398 14.402 6.4453 14.402 14.398"/>
  <path d="m488.4 223.2c0 7.9531-6.4453 14.402-14.398 14.402s-14.398-6.4492-14.398-14.402 6.4453-14.398 14.398-14.398 14.398 6.4453 14.398 14.398"/>
  <path d="m530.4 223.2c0 7.9531-6.4453 14.402-14.398 14.402s-14.398-6.4492-14.398-14.402 6.4453-14.398 14.398-14.398 14.398 6.4453 14.398 14.398"/>
  <path d="m572.4 223.2c0 7.9531-6.4453 14.402-14.398 14.402s-14.398-6.4492-14.398-14.402 6.4453-14.398 14.398-14.398 14.398 6.4453 14.398 14.398"/>
  <path d="m614.4 223.2c0 7.9531-6.4453 14.402-14.398 14.402s-14.398-6.4492-14.398-14.402 6.4453-14.398 14.398-14.398 14.398 6.4453 14.398 14.398"/>
  <path d="m656.4 223.2c0 7.9531-6.4453 14.402-14.398 14.402s-14.398-6.4492-14.398-14.402 6.4453-14.398 14.398-14.398 14.398 6.4453 14.398 14.398"/>
  <path d="m698.4 223.2c0 7.9531-6.4453 14.402-14.398 14.402s-14.398-6.4492-14.398-14.402 6.4453-14.398 14.398-14.398 14.398 6.4453 14.398 14.398"/>
  <path d="m740.4 223.2c0 7.9531-6.4453 14.402-14.398 14.402s-14.398-6.4492-14.398-14.402 6.4453-14.398 14.398-14.398 14.398 6.4453 14.398 14.398"/>
  <path d="m781.2 223.2c0 7.9531-6.4453 14.402-14.398 14.402s-14.402-6.4492-14.402-14.402 6.4492-14.398 14.402-14.398 14.398 6.4453 14.398 14.398"/>
  <path d="m823.2 223.2c0 7.9531-6.4453 14.402-14.398 14.402s-14.402-6.4492-14.402-14.402 6.4492-14.398 14.402-14.398 14.398 6.4453 14.398 14.398"/>
  <path d="m865.2 223.2c0 7.9531-6.4453 14.402-14.398 14.402s-14.402-6.4492-14.402-14.402 6.4492-14.398 14.402-14.398 14.398 6.4453 14.398 14.398"/>
  <path d="m907.2 223.2c0 7.9531-6.4453 14.402-14.398 14.402s-14.402-6.4492-14.402-14.402 6.4492-14.398 14.402-14.398 14.398 6.4453 14.398 14.398"/>
  <path d="m949.2 223.2c0 7.9531-6.4453 14.402-14.398 14.402s-14.402-6.4492-14.402-14.402 6.4492-14.398 14.402-14.398 14.398 6.4453 14.398 14.398"/>
  <path d="m279.6 265.2c0 7.9531-6.4492 14.402-14.402 14.402s-14.398-6.4492-14.398-14.402 6.4453-14.398 14.398-14.398 14.402 6.4453 14.402 14.398"/>
  <path d="m321.6 265.2c0 7.9531-6.4492 14.402-14.402 14.402s-14.398-6.4492-14.398-14.402 6.4453-14.398 14.398-14.398 14.402 6.4453 14.402 14.398"/>
  <path d="m363.6 265.2c0 7.9531-6.4492 14.402-14.402 14.402s-14.398-6.4492-14.398-14.402 6.4453-14.398 14.398-14.398 14.402 6.4453 14.402 14.398"/>
  <path d="m405.6 265.2c0 7.9531-6.4492 14.402-14.402 14.402s-14.398-6.4492-14.398-14.402 6.4453-14.398 14.398-14.398 14.402 6.4453 14.402 14.398"/>
  <path d="m447.6 265.2c0 7.9531-6.4492 14.402-14.402 14.402s-14.398-6.4492-14.398-14.402 6.4453-14.398 14.398-14.398 14.402 6.4453 14.402 14.398"/>
  <path d="m488.4 265.2c0 7.9531-6.4453 14.402-14.398 14.402s-14.398-6.4492-14.398-14.402 6.4453-14.398 14.398-14.398 14.398 6.4453 14.398 14.398"/>
  <path d="m530.4 265.2c0 7.9531-6.4453 14.402-14.398 14.402s-14.398-6.4492-14.398-14.402 6.4453-14.398 14.398-14.398 14.398 6.4453 14.398 14.398"/>
  <path d="m572.4 265.2c0 7.9531-6.4453 14.402-14.398 14.402s-14.398-6.4492-14.398-14.402 6.4453-14.398 14.398-14.398 14.398 6.4453 14.398 14.398"/>
  <path d="m614.4 265.2c0 7.9531-6.4453 14.402-14.398 14.402s-14.398-6.4492-14.398-14.402 6.4453-14.398 14.398-14.398 14.398 6.4453 14.398 14.398"/>
  <path d="m656.4 265.2c0 7.9531-6.4453 14.402-14.398 14.402s-14.398-6.4492-14.398-14.402 6.4453-14.398 14.398-14.398 14.398 6.4453 14.398 14.398"/>
  <path d="m698.4 265.2c0 7.9531-6.4453 14.402-14.398 14.402s-14.398-6.4492-14.398-14.402 6.4453-14.398 14.398-14.398 14.398 6.4453 14.398 14.398"/>
  <path d="m740.4 265.2c0 7.9531-6.4453 14.402-14.398 14.402s-14.398-6.4492-14.398-14.402 6.4453-14.398 14.398-14.398 14.398 6.4453 14.398 14.398"/>
  <path d="m781.2 265.2c0 7.9531-6.4453 14.402-14.398 14.402s-14.402-6.4492-14.402-14.402 6.4492-14.398 14.402-14.398 14.398 6.4453 14.398 14.398"/>
  <path d="m823.2 265.2c0 7.9531-6.4453 14.402-14.398 14.402s-14.402-6.4492-14.402-14.402 6.4492-14.398 14.402-14.398 14.398 6.4453 14.398 14.398"/>
  <path d="m865.2 265.2c0 7.9531-6.4453 14.402-14.398 14.402s-14.402-6.4492-14.402-14.402 6.4492-14.398 14.402-14.398 14.398 6.4453 14.398 14.398"/>
  <path d="m907.2 265.2c0 7.9531-6.4453 14.402-14.398 14.402s-14.402-6.4492-14.402-14.402 6.4492-14.398 14.402-14.398 14.398 6.4453 14.398 14.398"/>
  <path d="m949.2 265.2c0 7.9531-6.4453 14.402-14.398 14.402s-14.402-6.4492-14.402-14.402 6.4492-14.398 14.402-14.398 14.398 6.4453 14.398 14.398"/>
  <path d="m321.6 307.2c0 7.9531-6.4492 14.402-14.402 14.402s-14.398-6.4492-14.398-14.402 6.4453-14.398 14.398-14.398 14.402 6.4453 14.402 14.398"/>
  <path d="m363.6 307.2c0 7.9531-6.4492 14.402-14.402 14.402s-14.398-6.4492-14.398-14.402 6.4453-14.398 14.398-14.398 14.402 6.4453 14.402 14.398"/>
  <path d="m405.6 307.2c0 7.9531-6.4492 14.402-14.402 14.402s-14.398-6.4492-14.398-14.402 6.4453-14.398 14.398-14.398 14.402 6.4453 14.402 14.398"/>
  <path d="m447.6 307.2c0 7.9531-6.4492 14.402-14.402 14.402s-14.398-6.4492-14.398-14.402 6.4453-14.398 14.398-14.398 14.402 6.4453 14.402 14.398"/>
  <path d="m488.4 307.2c0 7.9531-6.4453 14.402-14.398 14.402s-14.398-6.4492-14.398-14.402 6.4453-14.398 14.398-14.398 14.398 6.4453 14.398 14.398"/>
  <path d="m530.4 307.2c0 7.9531-6.4453 14.402-14.398 14.402s-14.398-6.4492-14.398-14.402 6.4453-14.398 14.398-14.398 14.398 6.4453 14.398 14.398"/>
  <path d="m572.4 307.2c0 7.9531-6.4453 14.402-14.398 14.402s-14.398-6.4492-14.398-14.402 6.4453-14.398 14.398-14.398 14.398 6.4453 14.398 14.398"/>
  <path d="m614.4 307.2c0 7.9531-6.4453 14.402-14.398 14.402s-14.398-6.4492-14.398-14.402 6.4453-14.398 14.398-14.398 14.398 6.4453 14.398 14.398"/>
  <path d="m656.4 307.2c0 7.9531-6.4453 14.402-14.398 14.402s-14.398-6.4492-14.398-14.402 6.4453-14.398 14.398-14.398 14.398 6.4453 14.398 14.398"/>
  <path d="m698.4 307.2c0 7.9531-6.4453 14.402-14.398 14.402s-14.398-6.4492-14.398-14.402 6.4453-14.398 14.398-14.398 14.398 6.4453 14.398 14.398"/>
  <path d="m740.4 307.2c0 7.9531-6.4453 14.402-14.398 14.402s-14.398-6.4492-14.398-14.402 6.4453-14.398 14.398-14.398 14.398 6.4453 14.398 14.398"/>
  <path d="m781.2 307.2c0 7.9531-6.4453 14.402-14.398 14.402s-14.402-6.4492-14.402-14.402 6.4492-14.398 14.402-14.398 14.398 6.4453 14.398 14.398"/>
  <path d="m823.2 307.2c0 7.9531-6.4453 14.402-14.398 14.402s-14.402-6.4492-14.402-14.402 6.4492-14.398 14.402-14.398 14.398 6.4453 14.398 14.398"/>
  <path d="m865.2 307.2c0 7.9531-6.4453 14.402-14.398 14.402s-14.402-6.4492-14.402-14.402 6.4492-14.398 14.402-14.398 14.398 6.4453 14.398 14.398"/>
  <path d="m907.2 307.2c0 7.9531-6.4453 14.402-14.398 14.402s-14.402-6.4492-14.402-14.402 6.4492-14.398 14.402-14.398 14.398 6.4453 14.398 14.398"/>
  <path d="m321.6 349.2c0 7.9531-6.4492 14.402-14.402 14.402s-14.398-6.4492-14.398-14.402 6.4453-14.398 14.398-14.398 14.402 6.4453 14.402 14.398"/>
  <path d="m363.6 349.2c0 7.9531-6.4492 14.402-14.402 14.402s-14.398-6.4492-14.398-14.402 6.4453-14.398 14.398-14.398 14.402 6.4453 14.402 14.398"/>
  <path d="m405.6 349.2c0 7.9531-6.4492 14.402-14.402 14.402s-14.398-6.4492-14.398-14.402 6.4453-14.398 14.398-14.398 14.402 6.4453 14.402 14.398"/>
  <path d="m447.6 349.2c0 7.9531-6.4492 14.402-14.402 14.402s-14.398-6.4492-14.398-14.402 6.4453-14.398 14.398-14.398 14.402 6.4453 14.402 14.398"/>
  <path d="m488.4 349.2c0 7.9531-6.4453 14.402-14.398 14.402s-14.398-6.4492-14.398-14.402 6.4453-14.398 14.398-14.398 14.398 6.4453 14.398 14.398"/>
  <path d="m530.4 349.2c0 7.9531-6.4453 14.402-14.398 14.402s-14.398-6.4492-14.398-14.402 6.4453-14.398 14.398-14.398 14.398 6.4453 14.398 14.398"/>
  <path d="m572.4 349.2c0 7.9531-6.4453 14.402-14.398 14.402s-14.398-6.4492-14.398-14.402 6.4453-14.398 14.398-14.398 14.398 6.4453 14.398 14.398"/>
  <path d="m614.4 349.2c0 7.9531-6.4453 14.402-14.398 14.402s-14.398-6.4492-14.398-14.402 6.4453-14.398 14.398-14.398 14.398 6.4453 14.398 14.398"/>
  <path d="m656.4 349.2c0 7.9531-6.4453 14.402-14.398 14.402s-14.398-6.4492-14.398-14.402 6.4453-14.398 14.398-14.398 14.398 6.4453 14.398 14.398"/>
  <path d="m698.4 349.2c0 7.9531-6.4453 14.402-14.398 14.402s-14.398-6.4492-14.398-14.402 6.4453-14.398 14.398-14.398 14.398 6.4453 14.398 14.398"/>
  <path d="m740.4 349.2c0 7.9531-6.4453 14.402-14.398 14.402s-14.398-6.4492-14.398-14.402 6.4453-14.398 14.398-14.398 14.398 6.4453 14.398 14.398"/>
  <path d="m781.2 349.2c0 7.9531-6.4453 14.402-14.398 14.402s-14.402-6.4492-14.402-14.402 6.4492-14.398 14.402-14.398 14.398 6.4453 14.398 14.398"/>
  <path d="m823.2 349.2c0 7.9531-6.4453 14.402-14.398 14.402s-14.402-6.4492-14.402-14.402 6.4492-14.398 14.402-14.398 14.398 6.4453 14.398 14.398"/>
  <path d="m865.2 349.2c0 7.9531-6.4453 14.402-14.398 14.402s-14.402-6.4492-14.402-14.402 6.4492-14.398 14.402-14.398 14.398 6.4453 14.398 14.398"/>
  <path d="m321.6 391.2c0 7.9531-6.4492 14.402-14.402 14.402s-14.398-6.4492-14.398-14.402 6.4453-14.398 14.398-14.398 14.402 6.4453 14.402 14.398"/>
  <path d="m363.6 391.2c0 7.9531-6.4492 14.402-14.402 14.402s-14.398-6.4492-14.398-14.402 6.4453-14.398 14.398-14.398 14.402 6.4453 14.402 14.398"/>
  <path d="m405.6 391.2c0 7.9531-6.4492 14.402-14.402 14.402s-14.398-6.4492-14.398-14.402 6.4453-14.398 14.398-14.398 14.402 6.4453 14.402 14.398"/>
  <path d="m447.6 391.2c0 7.9531-6.4492 14.402-14.402 14.402s-14.398-6.4492-14.398-14.402 6.4453-14.398 14.398-14.398 14.402 6.4453 14.402 14.398"/>
  <path d="m488.4 391.2c0 7.9531-6.4453 14.402-14.398 14.402s-14.398-6.4492-14.398-14.402 6.4453-14.398 14.398-14.398 14.398 6.4453 14.398 14.398"/>
  <path d="m530.4 391.2c0 7.9531-6.4453 14.402-14.398 14.402s-14.398-6.4492-14.398-14.402 6.4453-14.398 14.398-14.398 14.398 6.4453 14.398 14.398"/>
  <path d="m572.4 391.2c0 7.9531-6.4453 14.402-14.398 14.402s-14.398-6.4492-14.398-14.402 6.4453-14.398 14.398-14.398 14.398 6.4453 14.398 14.398"/>
  <path d="m614.4 391.2c0 7.9531-6.4453 14.402-14.398 14.402s-14.398-6.4492-14.398-14.402 6.4453-14.398 14.398-14.398 14.398 6.4453 14.398 14.398"/>
  <path d="m656.4 391.2c0 7.9531-6.4453 14.402-14.398 14.402s-14.398-6.4492-14.398-14.402 6.4453-14.398 14.398-14.398 14.398 6.4453 14.398 14.398"/>
  <path d="m698.4 391.2c0 7.9531-6.4453 14.402-14.398 14.402s-14.398-6.4492-14.398-14.402 6.4453-14.398 14.398-14.398 14.398 6.4453 14.398 14.398"/>
  <path d="m740.4 391.2c0 7.9531-6.4453 14.402-14.398 14.402s-14.398-6.4492-14.398-14.402 6.4453-14.398 14.398-14.398 14.398 6.4453 14.398 14.398"/>
  <path d="m781.2 391.2c0 7.9531-6.4453 14.402-14.398 14.402s-14.402-6.4492-14.402-14.402 6.4492-14.398 14.402-14.398 14.398 6.4453 14.398 14.398"/>
  <path d="m279.6 433.2c0 7.9531-6.4492 14.402-14.402 14.402s-14.398-6.4492-14.398-14.402 6.4453-14.398 14.398-14.398 14.402 6.4453 14.402 14.398"/>
  <path d="m321.6 433.2c0 7.9531-6.4492 14.402-14.402 14.402s-14.398-6.4492-14.398-14.402 6.4453-14.398 14.398-14.398 14.402 6.4453 14.402 14.398"/>
  <path d="m363.6 433.2c0 7.9531-6.4492 14.402-14.402 14.402s-14.398-6.4492-14.398-14.402 6.4453-14.398 14.398-14.398 14.402 6.4453 14.402 14.398"/>
  <path d="m405.6 433.2c0 7.9531-6.4492 14.402-14.402 14.402s-14.398-6.4492-14.398-14.402 6.4453-14.398 14.398-14.398 14.402 6.4453 14.402 14.398"/>
  <path d="m447.6 433.2c0 7.9531-6.4492 14.402-14.402 14.402s-14.398-6.4492-14.398-14.402 6.4453-14.398 14.398-14.398 14.402 6.4453 14.402 14.398"/>
  <path d="m488.4 433.2c0 7.9531-6.4453 14.402-14.398 14.402s-14.398-6.4492-14.398-14.402 6.4453-14.398 14.398-14.398 14.398 6.4453 14.398 14.398"/>
  <path d="m530.4 433.2c0 7.9531-6.4453 14.402-14.398 14.402s-14.398-6.4492-14.398-14.402 6.4453-14.398 14.398-14.398 14.398 6.4453 14.398 14.398"/>
  <path d="m572.4 433.2c0 7.9531-6.4453 14.402-14.398 14.402s-14.398-6.4492-14.398-14.402 6.4453-14.398 14.398-14.398 14.398 6.4453 14.398 14.398"/>
  <path d="m614.4 433.2c0 7.9531-6.4453 14.402-14.398 14.402s-14.398-6.4492-14.398-14.402 6.4453-14.398 14.398-14.398 14.398 6.4453 14.398 14.398"/>
  <path d="m656.4 433.2c0 7.9531-6.4453 14.402-14.398 14.402s-14.398-6.4492-14.398-14.402 6.4453-14.398 14.398-14.398 14.398 6.4453 14.398 14.398"/>
  <path d="m698.4 433.2c0 7.9531-6.4453 14.402-14.398 14.402s-14.398-6.4492-14.398-14.402 6.4453-14.398 14.398-14.398 14.398 6.4453 14.398 14.398"/>
  <path d="m740.4 433.2c0 7.9531-6.4453 14.402-14.398 14.402s-14.398-6.4492-14.398-14.402 6.4453-14.398 14.398-14.398 14.398 6.4453 14.398 14.398"/>
  <path d="m781.2 433.2c0 7.9531-6.4453 14.402-14.398 14.402s-14.402-6.4492-14.402-14.402 6.4492-14.398 14.402-14.398 14.398 6.4453 14.398 14.398"/>
  <path d="m279.6 474c0 7.9531-6.4492 14.398-14.402 14.398s-14.398-6.4453-14.398-14.398 6.4453-14.398 14.398-14.398 14.402 6.4453 14.402 14.398"/>
  <path d="m321.6 474c0 7.9531-6.4492 14.398-14.402 14.398s-14.398-6.4453-14.398-14.398 6.4453-14.398 14.398-14.398 14.402 6.4453 14.402 14.398"/>
  <path d="m363.6 474c0 7.9531-6.4492 14.398-14.402 14.398s-14.398-6.4453-14.398-14.398 6.4453-14.398 14.398-14.398 14.402 6.4453 14.402 14.398"/>
  <path d="m405.6 474c0 7.9531-6.4492 14.398-14.402 14.398s-14.398-6.4453-14.398-14.398 6.4453-14.398 14.398-14.398 14.402 6.4453 14.402 14.398"/>
  <path d="m447.6 474c0 7.9531-6.4492 14.398-14.402 14.398s-14.398-6.4453-14.398-14.398 6.4453-14.398 14.398-14.398 14.402 6.4453 14.402 14.398"/>
  <path d="m488.4 474c0 7.9531-6.4453 14.398-14.398 14.398s-14.398-6.4453-14.398-14.398 6.4453-14.398 14.398-14.398 14.398 6.4453 14.398 14.398"/>
  <path d="m530.4 474c0 7.9531-6.4453 14.398-14.398 14.398s-14.398-6.4453-14.398-14.398 6.4453-14.398 14.398-14.398 14.398 6.4453 14.398 14.398"/>
  <path d="m572.4 474c0 7.9531-6.4453 14.398-14.398 14.398s-14.398-6.4453-14.398-14.398 6.4453-14.398 14.398-14.398 14.398 6.4453 14.398 14.398"/>
  <path d="m614.4 474c0 7.9531-6.4453 14.398-14.398 14.398s-14.398-6.4453-14.398-14.398 6.4453-14.398 14.398-14.398 14.398 6.4453 14.398 14.398"/>
  <path d="m656.4 474c0 7.9531-6.4453 14.398-14.398 14.398s-14.398-6.4453-14.398-14.398 6.4453-14.398 14.398-14.398 14.398 6.4453 14.398 14.398"/>
  <path d="m698.4 474c0 7.9531-6.4453 14.398-14.398 14.398s-14.398-6.4453-14.398-14.398 6.4453-14.398 14.398-14.398 14.398 6.4453 14.398 14.398"/>
  <path d="m740.4 474c0 7.9531-6.4453 14.398-14.398 14.398s-14.398-6.4453-14.398-14.398 6.4453-14.398 14.398-14.398 14.398 6.4453 14.398 14.398"/>
  <path d="m781.2 474c0 7.9531-6.4453 14.398-14.398 14.398s-14.402-6.4453-14.402-14.398 6.4492-14.398 14.402-14.398 14.398 6.4453 14.398 14.398"/>
  <path d="m279.6 516c0 7.9531-6.4492 14.398-14.402 14.398s-14.398-6.4453-14.398-14.398 6.4453-14.398 14.398-14.398 14.402 6.4453 14.402 14.398"/>
  <path d="m321.6 516c0 7.9531-6.4492 14.398-14.402 14.398s-14.398-6.4453-14.398-14.398 6.4453-14.398 14.398-14.398 14.402 6.4453 14.402 14.398"/>
  <path d="m363.6 516c0 7.9531-6.4492 14.398-14.402 14.398s-14.398-6.4453-14.398-14.398 6.4453-14.398 14.398-14.398 14.402 6.4453 14.402 14.398"/>
  <path d="m405.6 516c0 7.9531-6.4492 14.398-14.402 14.398s-14.398-6.4453-14.398-14.398 6.4453-14.398 14.398-14.398 14.402 6.4453 14.402 14.398"/>
  <path d="m447.6 516c0 7.9531-6.4492 14.398-14.402 14.398s-14.398-6.4453-14.398-14.398 6.4453-14.398 14.398-14.398 14.402 6.4453 14.402 14.398"/>
  <path d="m488.4 516c0 7.9531-6.4453 14.398-14.398 14.398s-14.398-6.4453-14.398-14.398 6.4453-14.398 14.398-14.398 14.398 6.4453 14.398 14.398"/>
  <path d="m530.4 516c0 7.9531-6.4453 14.398-14.398 14.398s-14.398-6.4453-14.398-14.398 6.4453-14.398 14.398-14.398 14.398 6.4453 14.398 14.398"/>
  <path d="m572.4 516c0 7.9531-6.4453 14.398-14.398 14.398s-14.398-6.4453-14.398-14.398 6.4453-14.398 14.398-14.398 14.398 6.4453 14.398 14.398"/>
  <path d="m614.4 516c0 7.9531-6.4453 14.398-14.398 14.398s-14.398-6.4453-14.398-14.398 6.4453-14.398 14.398-14.398 14.398 6.4453 14.398 14.398"/>
  <path d="m656.4 516c0 7.9531-6.4453 14.398-14.398 14.398s-14.398-6.4453-14.398-14.398 6.4453-14.398 14.398-14.398 14.398 6.4453 14.398 14.398"/>
  <path d="m698.4 516c0 7.9531-6.4453 14.398-14.398 14.398s-14.398-6.4453-14.398-14.398 6.4453-14.398 14.398-14.398 14.398 6.4453 14.398 14.398"/>
  <path d="m740.4 516c0 7.9531-6.4453 14.398-14.398 14.398s-14.398-6.4453-14.398-14.398 6.4453-14.398 14.398-14.398 14.398 6.4453 14.398 14.398"/>
  <path d="m279.6 558c0 7.9531-6.4492 14.398-14.402 14.398s-14.398-6.4453-14.398-14.398 6.4453-14.398 14.398-14.398 14.402 6.4453 14.402 14.398"/>
  <path d="m321.6 558c0 7.9531-6.4492 14.398-14.402 14.398s-14.398-6.4453-14.398-14.398 6.4453-14.398 14.398-14.398 14.402 6.4453 14.402 14.398"/>
  <path d="m363.6 558c0 7.9531-6.4492 14.398-14.402 14.398s-14.398-6.4453-14.398-14.398 6.4453-14.398 14.398-14.398 14.402 6.4453 14.402 14.398"/>
  <path d="m405.6 558c0 7.9531-6.4492 14.398-14.402 14.398s-14.398-6.4453-14.398-14.398 6.4453-14.398 14.398-14.398 14.402 6.4453 14.402 14.398"/>
  <path d="m447.6 558c0 7.9531-6.4492 14.398-14.402 14.398s-14.398-6.4453-14.398-14.398 6.4453-14.398 14.398-14.398 14.402 6.4453 14.402 14.398"/>
  <path d="m488.4 558c0 7.9531-6.4453 14.398-14.398 14.398s-14.398-6.4453-14.398-14.398 6.4453-14.398 14.398-14.398 14.398 6.4453 14.398 14.398"/>
  <path d="m530.4 558c0 7.9531-6.4453 14.398-14.398 14.398s-14.398-6.4453-14.398-14.398 6.4453-14.398 14.398-14.398 14.398 6.4453 14.398 14.398"/>
  <path d="m572.4 558c0 7.9531-6.4453 14.398-14.398 14.398s-14.398-6.4453-14.398-14.398 6.4453-14.398 14.398-14.398 14.398 6.4453 14.398 14.398"/>
  <path d="m614.4 558c0 7.9531-6.4453 14.398-14.398 14.398s-14.398-6.4453-14.398-14.398 6.4453-14.398 14.398-14.398 14.398 6.4453 14.398 14.398"/>
  <path d="m656.4 558c0 7.9531-6.4453 14.398-14.398 14.398s-14.398-6.4453-14.398-14.398 6.4453-14.398 14.398-14.398 14.398 6.4453 14.398 14.398"/>
  <path d="m698.4 558c0 7.9531-6.4453 14.398-14.398 14.398s-14.398-6.4453-14.398-14.398 6.4453-14.398 14.398-14.398 14.398 6.4453 14.398 14.398"/>
  <path d="m740.4 558c0 7.9531-6.4453 14.398-14.398 14.398s-14.398-6.4453-14.398-14.398 6.4453-14.398 14.398-14.398 14.398 6.4453 14.398 14.398"/>
  <path d="m279.6 600c0 7.9531-6.4492 14.398-14.402 14.398s-14.398-6.4453-14.398-14.398 6.4453-14.398 14.398-14.398 14.402 6.4453 14.402 14.398"/>
  <path d="m321.6 600c0 7.9531-6.4492 14.398-14.402 14.398s-14.398-6.4453-14.398-14.398 6.4453-14.398 14.398-14.398 14.402 6.4453 14.402 14.398"/>
  <path d="m363.6 600c0 7.9531-6.4492 14.398-14.402 14.398s-14.398-6.4453-14.398-14.398 6.4453-14.398 14.398-14.398 14.402 6.4453 14.402 14.398"/>
  <path d="m405.6 600c0 7.9531-6.4492 14.398-14.402 14.398s-14.398-6.4453-14.398-14.398 6.4453-14.398 14.398-14.398 14.402 6.4453 14.402 14.398"/>
  <path d="m447.6 600c0 7.9531-6.4492 14.398-14.402 14.398s-14.398-6.4453-14.398-14.398 6.4453-14.398 14.398-14.398 14.402 6.4453 14.402 14.398"/>
  <path d="m488.4 600c0 7.9531-6.4453 14.398-14.398 14.398s-14.398-6.4453-14.398-14.398 6.4453-14.398 14.398-14.398 14.398 6.4453 14.398 14.398"/>
  <path d="m530.4 600c0 7.9531-6.4453 14.398-14.398 14.398s-14.398-6.4453-14.398-14.398 6.4453-14.398 14.398-14.398 14.398 6.4453 14.398 14.398"/>
  <path d="m572.4 600c0 7.9531-6.4453 14.398-14.398 14.398s-14.398-6.4453-14.398-14.398 6.4453-14.398 14.398-14.398 14.398 6.4453 14.398 14.398"/>
  <path d="m614.4 600c0 7.9531-6.4453 14.398-14.398 14.398s-14.398-6.4453-14.398-14.398 6.4453-14.398 14.398-14.398 14.398 6.4453 14.398 14.398"/>
  <path d="m656.4 600c0 7.9531-6.4453 14.398-14.398 14.398s-14.398-6.4453-14.398-14.398 6.4453-14.398 14.398-14.398 14.398 6.4453 14.398 14.398"/>
  <path d="m698.4 600c0 7.9531-6.4453 14.398-14.398 14.398s-14.398-6.4453-14.398-14.398 6.4453-14.398 14.398-14.398 14.398 6.4453 14.398 14.398"/>
  <path d="m740.4 600c0 7.9531-6.4453 14.398-14.398 14.398s-14.398-6.4453-14.398-14.398 6.4453-14.398 14.398-14.398 14.398 6.4453 14.398 14.398"/>
  <path d="m279.6 642c0 7.9531-6.4492 14.398-14.402 14.398s-14.398-6.4453-14.398-14.398 6.4453-14.398 14.398-14.398 14.402 6.4453 14.402 14.398"/>
  <path d="m321.6 642c0 7.9531-6.4492 14.398-14.402 14.398s-14.398-6.4453-14.398-14.398 6.4453-14.398 14.398-14.398 14.402 6.4453 14.402 14.398"/>
  <path d="m363.6 642c0 7.9531-6.4492 14.398-14.402 14.398s-14.398-6.4453-14.398-14.398 6.4453-14.398 14.398-14.398 14.402 6.4453 14.402 14.398"/>
  <path d="m405.6 642c0 7.9531-6.4492 14.398-14.402 14.398s-14.398-6.4453-14.398-14.398 6.4453-14.398 14.398-14.398 14.402 6.4453 14.402 14.398"/>
  <path d="m447.6 642c0 7.9531-6.4492 14.398-14.402 14.398s-14.398-6.4453-14.398-14.398 6.4453-14.398 14.398-14.398 14.402 6.4453 14.402 14.398"/>
  <path d="m488.4 642c0 7.9531-6.4453 14.398-14.398 14.398s-14.398-6.4453-14.398-14.398 6.4453-14.398 14.398-14.398 14.398 6.4453 14.398 14.398"/>
  <path d="m530.4 642c0 7.9531-6.4453 14.398-14.398 14.398s-14.398-6.4453-14.398-14.398 6.4453-14.398 14.398-14.398 14.398 6.4453 14.398 14.398"/>
  <path d="m572.4 642c0 7.9531-6.4453 14.398-14.398 14.398s-14.398-6.4453-14.398-14.398 6.4453-14.398 14.398-14.398 14.398 6.4453 14.398 14.398"/>
  <path d="m614.4 642c0 7.9531-6.4453 14.398-14.398 14.398s-14.398-6.4453-14.398-14.398 6.4453-14.398 14.398-14.398 14.398 6.4453 14.398 14.398"/>
  <path d="m656.4 642c0 7.9531-6.4453 14.398-14.398 14.398s-14.398-6.4453-14.398-14.398 6.4453-14.398 14.398-14.398 14.398 6.4453 14.398 14.398"/>
  <path d="m698.4 642c0 7.9531-6.4453 14.398-14.398 14.398s-14.398-6.4453-14.398-14.398 6.4453-14.398 14.398-14.398 14.398 6.4453 14.398 14.398"/>
  <path d="m279.6 684c0 7.9531-6.4492 14.398-14.402 14.398s-14.398-6.4453-14.398-14.398 6.4453-14.398 14.398-14.398 14.402 6.4453 14.402 14.398"/>
  <path d="m321.6 684c0 7.9531-6.4492 14.398-14.402 14.398s-14.398-6.4453-14.398-14.398 6.4453-14.398 14.398-14.398 14.402 6.4453 14.402 14.398"/>
  <path d="m363.6 684c0 7.9531-6.4492 14.398-14.402 14.398s-14.398-6.4453-14.398-14.398 6.4453-14.398 14.398-14.398 14.402 6.4453 14.402 14.398"/>
  <path d="m405.6 684c0 7.9531-6.4492 14.398-14.402 14.398s-14.398-6.4453-14.398-14.398 6.4453-14.398 14.398-14.398 14.402 6.4453 14.402 14.398"/>
  <path d="m447.6 684c0 7.9531-6.4492 14.398-14.402 14.398s-14.398-6.4453-14.398-14.398 6.4453-14.398 14.398-14.398 14.402 6.4453 14.402 14.398"/>
  <path d="m488.4 684c0 7.9531-6.4453 14.398-14.398 14.398s-14.398-6.4453-14.398-14.398 6.4453-14.398 14.398-14.398 14.398 6.4453 14.398 14.398"/>
  <path d="m530.4 684c0 7.9531-6.4453 14.398-14.398 14.398s-14.398-6.4453-14.398-14.398 6.4453-14.398 14.398-14.398 14.398 6.4453 14.398 14.398"/>
  <path d="m572.4 684c0 7.9531-6.4453 14.398-14.398 14.398s-14.398-6.4453-14.398-14.398 6.4453-14.398 14.398-14.398 14.398 6.4453 14.398 14.398"/>
  <path d="m614.4 684c0 7.9531-6.4453 14.398-14.398 14.398s-14.398-6.4453-14.398-14.398 6.4453-14.398 14.398-14.398 14.398 6.4453 14.398 14.398"/>
  <path d="m656.4 684c0 7.9531-6.4453 14.398-14.398 14.398s-14.398-6.4453-14.398-14.398 6.4453-14.398 14.398-14.398 14.398 6.4453 14.398 14.398"/>
  <path d="m279.6 726c0 7.9531-6.4492 14.398-14.402 14.398s-14.398-6.4453-14.398-14.398 6.4453-14.398 14.398-14.398 14.402 6.4453 14.402 14.398"/>
  <path d="m321.6 726c0 7.9531-6.4492 14.398-14.402 14.398s-14.398-6.4453-14.398-14.398 6.4453-14.398 14.398-14.398 14.402 6.4453 14.402 14.398"/>
  <path d="m363.6 726c0 7.9531-6.4492 14.398-14.402 14.398s-14.398-6.4453-14.398-14.398 6.4453-14.398 14.398-14.398 14.402 6.4453 14.402 14.398"/>
  <path d="m405.6 726c0 7.9531-6.4492 14.398-14.402 14.398s-14.398-6.4453-14.398-14.398 6.4453-14.398 14.398-14.398 14.402 6.4453 14.402 14.398"/>
  <path d="m447.6 726c0 7.9531-6.4492 14.398-14.402 14.398s-14.398-6.4453-14.398-14.398 6.4453-14.398 14.398-14.398 14.402 6.4453 14.402 14.398"/>
  <path d="m488.4 726c0 7.9531-6.4453 14.398-14.398 14.398s-14.398-6.4453-14.398-14.398 6.4453-14.398 14.398-14.398 14.398 6.4453 14.398 14.398"/>
  <path d="m530.4 726c0 7.9531-6.4453 14.398-14.398 14.398s-14.398-6.4453-14.398-14.398 6.4453-14.398 14.398-14.398 14.398 6.4453 14.398 14.398"/>
  <path d="m572.4 726c0 7.9531-6.4453 14.398-14.398 14.398s-14.398-6.4453-14.398-14.398 6.4453-14.398 14.398-14.398 14.398 6.4453 14.398 14.398"/>
  <path d="m614.4 726c0 7.9531-6.4453 14.398-14.398 14.398s-14.398-6.4453-14.398-14.398 6.4453-14.398 14.398-14.398 14.398 6.4453 14.398 14.398"/>
  <path d="m656.4 726c0 7.9531-6.4453 14.398-14.398 14.398s-14.398-6.4453-14.398-14.398 6.4453-14.398 14.398-14.398 14.398 6.4453 14.398 14.398"/>
  <path d="m279.6 766.8c0 7.9531-6.4492 14.398-14.402 14.398s-14.398-6.4453-14.398-14.398 6.4453-14.402 14.398-14.402 14.402 6.4492 14.402 14.402"/>
  <path d="m321.6 766.8c0 7.9531-6.4492 14.398-14.402 14.398s-14.398-6.4453-14.398-14.398 6.4453-14.402 14.398-14.402 14.402 6.4492 14.402 14.402"/>
  <path d="m363.6 766.8c0 7.9531-6.4492 14.398-14.402 14.398s-14.398-6.4453-14.398-14.398 6.4453-14.402 14.398-14.402 14.402 6.4492 14.402 14.402"/>
  <path d="m405.6 766.8c0 7.9531-6.4492 14.398-14.402 14.398s-14.398-6.4453-14.398-14.398 6.4453-14.402 14.398-14.402 14.402 6.4492 14.402 14.402"/>
  <path d="m447.6 766.8c0 7.9531-6.4492 14.398-14.402 14.398s-14.398-6.4453-14.398-14.398 6.4453-14.402 14.398-14.402 14.402 6.4492 14.402 14.402"/>
  <path d="m488.4 766.8c0 7.9531-6.4453 14.398-14.398 14.398s-14.398-6.4453-14.398-14.398 6.4453-14.402 14.398-14.402 14.398 6.4492 14.398 14.402"/>
  <path d="m530.4 766.8c0 7.9531-6.4453 14.398-14.398 14.398s-14.398-6.4453-14.398-14.398 6.4453-14.402 14.398-14.402 14.398 6.4492 14.398 14.402"/>
  <path d="m572.4 766.8c0 7.9531-6.4453 14.398-14.398 14.398s-14.398-6.4453-14.398-14.398 6.4453-14.402 14.398-14.402 14.398 6.4492 14.398 14.402"/>
  <path d="m614.4 766.8c0 7.9531-6.4453 14.398-14.398 14.398s-14.398-6.4453-14.398-14.398 6.4453-14.402 14.398-14.402 14.398 6.4492 14.398 14.402"/>
  <path d="m656.4 766.8c0 7.9531-6.4453 14.398-14.398 14.398s-14.398-6.4453-14.398-14.398 6.4453-14.402 14.398-14.402 14.398 6.4492 14.398 14.402"/>
  <path d="m321.6 808.8c0 7.9531-6.4492 14.398-14.402 14.398s-14.398-6.4453-14.398-14.398 6.4453-14.402 14.398-14.402 14.402 6.4492 14.402 14.402"/>
  <path d="m363.6 808.8c0 7.9531-6.4492 14.398-14.402 14.398s-14.398-6.4453-14.398-14.398 6.4453-14.402 14.398-14.402 14.402 6.4492 14.402 14.402"/>
  <path d="m405.6 808.8c0 7.9531-6.4492 14.398-14.402 14.398s-14.398-6.4453-14.398-14.398 6.4453-14.402 14.398-14.402 14.402 6.4492 14.402 14.402"/>
  <path d="m447.6 808.8c0 7.9531-6.4492 14.398-14.402 14.398s-14.398-6.4453-14.398-14.398 6.4453-14.402 14.398-14.402 14.402 6.4492 14.402 14.402"/>
  <path d="m488.4 808.8c0 7.9531-6.4453 14.398-14.398 14.398s-14.398-6.4453-14.398-14.398 6.4453-14.402 14.398-14.402 14.398 6.4492 14.398 14.402"/>
  <path d="m530.4 808.8c0 7.9531-6.4453 14.398-14.398 14.398s-14.398-6.4453-14.398-14.398 6.4453-14.402 14.398-14.402 14.398 6.4492 14.398 14.402"/>
  <path d="m572.4 808.8c0 7.9531-6.4453 14.398-14.398 14.398s-14.398-6.4453-14.398-14.398 6.4453-14.402 14.398-14.402 14.398 6.4492 14.398 14.402"/>
  <path d="m614.4 808.8c0 7.9531-6.4453 14.398-14.398 14.398s-14.398-6.4453-14.398-14.398 6.4453-14.402 14.398-14.402 14.398 6.4492 14.398 14.402"/>
  <path d="m321.6 850.8c0 7.9531-6.4492 14.398-14.402 14.398s-14.398-6.4453-14.398-14.398 6.4453-14.402 14.398-14.402 14.402 6.4492 14.402 14.402"/>
  <path d="m363.6 850.8c0 7.9531-6.4492 14.398-14.402 14.398s-14.398-6.4453-14.398-14.398 6.4453-14.402 14.398-14.402 14.402 6.4492 14.402 14.402"/>
  <path d="m405.6 850.8c0 7.9531-6.4492 14.398-14.402 14.398s-14.398-6.4453-14.398-14.398 6.4453-14.402 14.398-14.402 14.402 6.4492 14.402 14.402"/>
  <path d="m447.6 850.8c0 7.9531-6.4492 14.398-14.402 14.398s-14.398-6.4453-14.398-14.398 6.4453-14.402 14.398-14.402 14.402 6.4492 14.402 14.402"/>
  <path d="m488.4 850.8c0 7.9531-6.4453 14.398-14.398 14.398s-14.398-6.4453-14.398-14.398 6.4453-14.402 14.398-14.402 14.398 6.4492 14.398 14.402"/>
  <path d="m530.4 850.8c0 7.9531-6.4453 14.398-14.398 14.398s-14.398-6.4453-14.398-14.398 6.4453-14.402 14.398-14.402 14.398 6.4492 14.398 14.402"/>
  <path d="m572.4 850.8c0 7.9531-6.4453 14.398-14.398 14.398s-14.398-6.4453-14.398-14.398 6.4453-14.402 14.398-14.402 14.398 6.4492 14.398 14.402"/>
  <path d="m614.4 850.8c0 7.9531-6.4453 14.398-14.398 14.398s-14.398-6.4453-14.398-14.398 6.4453-14.402 14.398-14.402 14.398 6.4492 14.398 14.402"/>
  <path d="m321.6 892.8c0 7.9531-6.4492 14.398-14.402 14.398s-14.398-6.4453-14.398-14.398 6.4453-14.402 14.398-14.402 14.402 6.4492 14.402 14.402"/>
  <path d="m363.6 892.8c0 7.9531-6.4492 14.398-14.402 14.398s-14.398-6.4453-14.398-14.398 6.4453-14.402 14.398-14.402 14.402 6.4492 14.402 14.402"/>
  <path d="m405.6 892.8c0 7.9531-6.4492 14.398-14.402 14.398s-14.398-6.4453-14.398-14.398 6.4453-14.402 14.398-14.402 14.402 6.4492 14.402 14.402"/>
  <path d="m447.6 892.8c0 7.9531-6.4492 14.398-14.402 14.398s-14.398-6.4453-14.398-14.398 6.4453-14.402 14.398-14.402 14.402 6.4492 14.402 14.402"/>
  <path d="m488.4 892.8c0 7.9531-6.4453 14.398-14.398 14.398s-14.398-6.4453-14.398-14.398 6.4453-14.402 14.398-14.402 14.398 6.4492 14.398 14.402"/>
  <path d="m530.4 892.8c0 7.9531-6.4453 14.398-14.398 14.398s-14.398-6.4453-14.398-14.398 6.4453-14.402 14.398-14.402 14.398 6.4492 14.398 14.402"/>
  <path d="m572.4 892.8c0 7.9531-6.4453 14.398-14.398 14.398s-14.398-6.4453-14.398-14.398 6.4453-14.402 14.398-14.402 14.398 6.4492 14.398 14.402"/>
  <path d="m614.4 892.8c0 7.9531-6.4453 14.398-14.398 14.398s-14.398-6.4453-14.398-14.398 6.4453-14.402 14.398-14.402 14.398 6.4492 14.398 14.402"/>
  <path d="m321.6 934.8c0 7.9531-6.4492 14.398-14.402 14.398s-14.398-6.4453-14.398-14.398 6.4453-14.402 14.398-14.402 14.402 6.4492 14.402 14.402"/>
  <path d="m363.6 934.8c0 7.9531-6.4492 14.398-14.402 14.398s-14.398-6.4453-14.398-14.398 6.4453-14.402 14.398-14.402 14.402 6.4492 14.402 14.402"/>
  <path d="m405.6 934.8c0 7.9531-6.4492 14.398-14.402 14.398s-14.398-6.4453-14.398-14.398 6.4453-14.402 14.398-14.402 14.402 6.4492 14.402 14.402"/>
  <path d="m447.6 934.8c0 7.9531-6.4492 14.398-14.402 14.398s-14.398-6.4453-14.398-14.398 6.4453-14.402 14.398-14.402 14.402 6.4492 14.402 14.402"/>
  <path d="m488.4 934.8c0 7.9531-6.4453 14.398-14.398 14.398s-14.398-6.4453-14.398-14.398 6.4453-14.402 14.398-14.402 14.398 6.4492 14.398 14.402"/>
  <path d="m530.4 934.8c0 7.9531-6.4453 14.398-14.398 14.398s-14.398-6.4453-14.398-14.398 6.4453-14.402 14.398-14.402 14.398 6.4492 14.398 14.402"/>
  <path d="m572.4 934.8c0 7.9531-6.4453 14.398-14.398 14.398s-14.398-6.4453-14.398-14.398 6.4453-14.402 14.398-14.402 14.398 6.4492 14.398 14.402"/>
  <path d="m614.4 934.8c0 7.9531-6.4453 14.398-14.398 14.398s-14.398-6.4453-14.398-14.398 6.4453-14.402 14.398-14.402 14.398 6.4492 14.398 14.402"/>
  <path d="m321.6 976.8c0 7.9531-6.4492 14.398-14.402 14.398s-14.398-6.4453-14.398-14.398 6.4453-14.402 14.398-14.402 14.402 6.4492 14.402 14.402"/>
  <path d="m363.6 976.8c0 7.9531-6.4492 14.398-14.402 14.398s-14.398-6.4453-14.398-14.398 6.4453-14.402 14.398-14.402 14.402 6.4492 14.402 14.402"/>
  <path d="m405.6 976.8c0 7.9531-6.4492 14.398-14.402 14.398s-14.398-6.4453-14.398-14.398 6.4453-14.402 14.398-14.402 14.402 6.4492 14.402 14.402"/>
  <path d="m447.6 976.8c0 7.9531-6.4492 14.398-14.402 14.398s-14.398-6.4453-14.398-14.398 6.4453-14.402 14.398-14.402 14.402 6.4492 14.402 14.402"/>
  <path d="m488.4 976.8c0 7.9531-6.4453 14.398-14.398 14.398s-14.398-6.4453-14.398-14.398 6.4453-14.402 14.398-14.402 14.398 6.4492 14.398 14.402"/>
  <path d="m530.4 976.8c0 7.9531-6.4453 14.398-14.398 14.398s-14.398-6.4453-14.398-14.398 6.4453-14.402 14.398-14.402 14.398 6.4492 14.398 14.402"/>
  <path d="m572.4 976.8c0 7.9531-6.4453 14.398-14.398 14.398s-14.398-6.4453-14.398-14.398 6.4453-14.402 14.398-14.402 14.398 6.4492 14.398 14.402"/>
  <path d="m614.4 976.8c0 7.9531-6.4453 14.398-14.398 14.398s-14.398-6.4453-14.398-14.398 6.4453-14.402 14.398-14.402 14.398 6.4492 14.398 14.402"/>
  <path d="m321.6 1017.6c0 7.9531-6.4492 14.398-14.402 14.398s-14.398-6.4453-14.398-14.398c0-7.9531 6.4453-14.402 14.398-14.402s14.402 6.4492 14.402 14.402"/>
  <path d="m363.6 1017.6c0 7.9531-6.4492 14.398-14.402 14.398s-14.398-6.4453-14.398-14.398c0-7.9531 6.4453-14.402 14.398-14.402s14.402 6.4492 14.402 14.402"/>
  <path d="m405.6 1017.6c0 7.9531-6.4492 14.398-14.402 14.398s-14.398-6.4453-14.398-14.398c0-7.9531 6.4453-14.402 14.398-14.402s14.402 6.4492 14.402 14.402"/>
  <path d="m447.6 1017.6c0 7.9531-6.4492 14.398-14.402 14.398s-14.398-6.4453-14.398-14.398c0-7.9531 6.4453-14.402 14.398-14.402s14.402 6.4492 14.402 14.402"/>
  <path d="m488.4 1017.6c0 7.9531-6.4453 14.398-14.398 14.398s-14.398-6.4453-14.398-14.398c0-7.9531 6.4453-14.402 14.398-14.402s14.398 6.4492 14.398 14.402"/>
  <path d="m530.4 1017.6c0 7.9531-6.4453 14.398-14.398 14.398s-14.398-6.4453-14.398-14.398c0-7.9531 6.4453-14.402 14.398-14.402s14.398 6.4492 14.398 14.402"/>
  <path d="m572.4 1017.6c0 7.9531-6.4453 14.398-14.398 14.398s-14.398-6.4453-14.398-14.398c0-7.9531 6.4453-14.402 14.398-14.402s14.398 6.4492 14.398 14.402"/>
  <path d="m614.4 1017.6c0 7.9531-6.4453 14.398-14.398 14.398s-14.398-6.4453-14.398-14.398c0-7.9531 6.4453-14.402 14.398-14.402s14.398 6.4492 14.398 14.402"/>
  <path d="m321.6 1059.6c0 7.9531-6.4492 14.398-14.402 14.398s-14.398-6.4453-14.398-14.398c0-7.9531 6.4453-14.402 14.398-14.402s14.402 6.4492 14.402 14.402"/>
  <path d="m363.6 1059.6c0 7.9531-6.4492 14.398-14.402 14.398s-14.398-6.4453-14.398-14.398c0-7.9531 6.4453-14.402 14.398-14.402s14.402 6.4492 14.402 14.402"/>
  <path d="m405.6 1059.6c0 7.9531-6.4492 14.398-14.402 14.398s-14.398-6.4453-14.398-14.398c0-7.9531 6.4453-14.402 14.398-14.402s14.402 6.4492 14.402 14.402"/>
  <path d="m447.6 1059.6c0 7.9531-6.4492 14.398-14.402 14.398s-14.398-6.4453-14.398-14.398c0-7.9531 6.4453-14.402 14.398-14.402s14.402 6.4492 14.402 14.402"/>
  <path d="m488.4 1059.6c0 7.9531-6.4453 14.398-14.398 14.398s-14.398-6.4453-14.398-14.398c0-7.9531 6.4453-14.402 14.398-14.402s14.398 6.4492 14.398 14.402"/>
  <path d="m530.4 1059.6c0 7.9531-6.4453 14.398-14.398 14.398s-14.398-6.4453-14.398-14.398c0-7.9531 6.4453-14.402 14.398-14.402s14.398 6.4492 14.398 14.402"/>
  <path d="m572.4 1059.6c0 7.9531-6.4453 14.398-14.398 14.398s-14.398-6.4453-14.398-14.398c0-7.9531 6.4453-14.402 14.398-14.402s14.398 6.4492 14.398 14.402"/>
  <path d="m321.6 1101.6c0 7.9531-6.4492 14.398-14.402 14.398s-14.398-6.4453-14.398-14.398c0-7.9531 6.4453-14.402 14.398-14.402s14.402 6.4492 14.402 14.402"/>
  <path d="m363.6 1101.6c0 7.9531-6.4492 14.398-14.402 14.398s-14.398-6.4453-14.398-14.398c0-7.9531 6.4453-14.402 14.398-14.402s14.402 6.4492 14.402 14.402"/>
  <path d="m405.6 1101.6c0 7.9531-6.4492 14.398-14.402 14.398s-14.398-6.4453-14.398-14.398c0-7.9531 6.4453-14.402 14.398-14.402s14.402 6.4492 14.402 14.402"/>
  <path d="m447.6 1101.6c0 7.9531-6.4492 14.398-14.402 14.398s-14.398-6.4453-14.398-14.398c0-7.9531 6.4453-14.402 14.398-14.402s14.402 6.4492 14.402 14.402"/>
  <path d="m488.4 1101.6c0 7.9531-6.4453 14.398-14.398 14.398s-14.398-6.4453-14.398-14.398c0-7.9531 6.4453-14.402 14.398-14.402s14.398 6.4492 14.398 14.402"/>
  <path d="m530.4 1101.6c0 7.9531-6.4453 14.398-14.398 14.398s-14.398-6.4453-14.398-14.398c0-7.9531 6.4453-14.402 14.398-14.402s14.398 6.4492 14.398 14.402"/>
  <path d="m572.4 1101.6c0 7.9531-6.4453 14.398-14.398 14.398s-14.398-6.4453-14.398-14.398c0-7.9531 6.4453-14.402 14.398-14.402s14.398 6.4492 14.398 14.402"/>
  <path d="m321.6 1143.6c0 7.9531-6.4492 14.398-14.402 14.398s-14.398-6.4453-14.398-14.398c0-7.9531 6.4453-14.402 14.398-14.402s14.402 6.4492 14.402 14.402"/>
  <path d="m363.6 1143.6c0 7.9531-6.4492 14.398-14.402 14.398s-14.398-6.4453-14.398-14.398c0-7.9531 6.4453-14.402 14.398-14.402s14.402 6.4492 14.402 14.402"/>
  <path d="m405.6 1143.6c0 7.9531-6.4492 14.398-14.402 14.398s-14.398-6.4453-14.398-14.398c0-7.9531 6.4453-14.402 14.398-14.402s14.402 6.4492 14.402 14.402"/>
  <path d="m447.6 1143.6c0 7.9531-6.4492 14.398-14.402 14.398s-14.398-6.4453-14.398-14.398c0-7.9531 6.4453-14.402 14.398-14.402s14.402 6.4492 14.402 14.402"/>
  <path d="m488.4 1143.6c0 7.9531-6.4453 14.398-14.398 14.398s-14.398-6.4453-14.398-14.398c0-7.9531 6.4453-14.402 14.398-14.402s14.398 6.4492 14.398 14.402"/>
  <path d="m530.4 1143.6c0 7.9531-6.4453 14.398-14.398 14.398s-14.398-6.4453-14.398-14.398c0-7.9531 6.4453-14.402 14.398-14.402s14.398 6.4492 14.398 14.402"/>
  <path d="m572.4 1143.6c0 7.9531-6.4453 14.398-14.398 14.398s-14.398-6.4453-14.398-14.398c0-7.9531 6.4453-14.402 14.398-14.402s14.398 6.4492 14.398 14.402"/>
  <path d="m321.6 1185.6c0 7.9531-6.4492 14.398-14.402 14.398s-14.398-6.4453-14.398-14.398c0-7.9531 6.4453-14.402 14.398-14.402s14.402 6.4492 14.402 14.402"/>
  <path d="m363.6 1185.6c0 7.9531-6.4492 14.398-14.402 14.398s-14.398-6.4453-14.398-14.398c0-7.9531 6.4453-14.402 14.398-14.402s14.402 6.4492 14.402 14.402"/>
  <path d="m405.6 1185.6c0 7.9531-6.4492 14.398-14.402 14.398s-14.398-6.4453-14.398-14.398c0-7.9531 6.4453-14.402 14.398-14.402s14.402 6.4492 14.402 14.402"/>
  <path d="m447.6 1185.6c0 7.9531-6.4492 14.398-14.402 14.398s-14.398-6.4453-14.398-14.398c0-7.9531 6.4453-14.402 14.398-14.402s14.402 6.4492 14.402 14.402"/>
  <path d="m488.4 1185.6c0 7.9531-6.4453 14.398-14.398 14.398s-14.398-6.4453-14.398-14.398c0-7.9531 6.4453-14.402 14.398-14.402s14.398 6.4492 14.398 14.402"/>
  <path d="m530.4 1185.6c0 7.9531-6.4453 14.398-14.398 14.398s-14.398-6.4453-14.398-14.398c0-7.9531 6.4453-14.402 14.398-14.402s14.398 6.4492 14.398 14.402"/>
  <path d="m572.4 1185.6c0 7.9531-6.4453 14.398-14.398 14.398s-14.398-6.4453-14.398-14.398c0-7.9531 6.4453-14.402 14.398-14.402s14.398 6.4492 14.398 14.402"/>
  <path d="m614.4 1185.6c0 7.9531-6.4453 14.398-14.398 14.398s-14.398-6.4453-14.398-14.398c0-7.9531 6.4453-14.402 14.398-14.402s14.398 6.4492 14.398 14.402"/>
 </g>
</svg>
