<?xml version="1.0" encoding="UTF-8"?>
<svg width="512pt" height="512pt" version="1.1" viewBox="0 0 512 512" xmlns="http://www.w3.org/2000/svg">
 <g fill="#fff">
  <path d="m119.3 6.1445c0 3.3945-2.75 6.1445-6.1445 6.1445-3.3945 0-6.1445-2.75-6.1445-6.1445s2.75-6.1445 6.1445-6.1445c3.3945 0 6.1445 2.75 6.1445 6.1445"/>
  <path d="m137.21 6.1445c0 3.3945-2.75 6.1445-6.1445 6.1445-3.3906 0-6.1406-2.75-6.1406-6.1445s2.75-6.1445 6.1406-6.1445c3.3945 0 6.1445 2.75 6.1445 6.1445"/>
  <path d="m155.14 6.1445c0 3.3945-2.75 6.1445-6.1445 6.1445-3.3945 0-6.1445-2.75-6.1445-6.1445s2.75-6.1445 6.1445-6.1445c3.3945 0 6.1445 2.75 6.1445 6.1445"/>
  <path d="m173.05 6.1445c0 3.3945-2.75 6.1445-6.1445 6.1445-3.3906 0-6.1406-2.75-6.1406-6.1445s2.75-6.1445 6.1406-6.1445c3.3945 0 6.1445 2.75 6.1445 6.1445"/>
  <path d="m190.98 6.1445c0 3.3945-2.75 6.1445-6.1445 6.1445s-6.1445-2.75-6.1445-6.1445 2.75-6.1445 6.1445-6.1445 6.1445 2.75 6.1445 6.1445"/>
  <path d="m208.38 6.1445c0 3.3945-2.75 6.1445-6.1445 6.1445-3.3906 0-6.1406-2.75-6.1406-6.1445s2.75-6.1445 6.1406-6.1445c3.3945 0 6.1445 2.75 6.1445 6.1445"/>
  <path d="m226.3 6.1445c0 3.3945-2.75 6.1445-6.1445 6.1445-3.3945 0-6.1445-2.75-6.1445-6.1445s2.75-6.1445 6.1445-6.1445c3.3945 0 6.1445 2.75 6.1445 6.1445"/>
  <path d="m244.22 6.1445c0 3.3945-2.75 6.1445-6.1445 6.1445-3.3906 0-6.1406-2.75-6.1406-6.1445s2.75-6.1445 6.1406-6.1445c3.3945 0 6.1445 2.75 6.1445 6.1445"/>
  <path d="m262.14 6.1445c0 3.3945-2.75 6.1445-6.1445 6.1445s-6.1445-2.75-6.1445-6.1445 2.75-6.1445 6.1445-6.1445 6.1445 2.75 6.1445 6.1445"/>
  <path d="m280.06 6.1445c0 3.3945-2.75 6.1445-6.1406 6.1445-3.3945 0-6.1445-2.75-6.1445-6.1445s2.75-6.1445 6.1445-6.1445c3.3906 0 6.1406 2.75 6.1406 6.1445"/>
  <path d="m297.98 6.1445c0 3.3945-2.75 6.1445-6.1445 6.1445-3.3945 0-6.1445-2.75-6.1445-6.1445s2.75-6.1445 6.1445-6.1445c3.3945 0 6.1445 2.75 6.1445 6.1445"/>
  <path d="m315.9 6.1445c0 3.3945-2.75 6.1445-6.1406 6.1445-3.3945 0-6.1445-2.75-6.1445-6.1445s2.75-6.1445 6.1445-6.1445c3.3906 0 6.1406 2.75 6.1406 6.1445"/>
  <path d="m333.31 6.1445c0 3.3945-2.75 6.1445-6.1445 6.1445s-6.1445-2.75-6.1445-6.1445 2.75-6.1445 6.1445-6.1445 6.1445 2.75 6.1445 6.1445"/>
  <path d="m351.23 6.1445c0 3.3945-2.75 6.1445-6.1406 6.1445-3.3945 0-6.1445-2.75-6.1445-6.1445s2.75-6.1445 6.1445-6.1445c3.3906 0 6.1406 2.75 6.1406 6.1445"/>
  <path d="m369.15 6.1445c0 3.3945-2.75 6.1445-6.1445 6.1445-3.3945 0-6.1445-2.75-6.1445-6.1445s2.75-6.1445 6.1445-6.1445c3.3945 0 6.1445 2.75 6.1445 6.1445"/>
  <path d="m387.07 6.1445c0 3.3945-2.75 6.1445-6.1406 6.1445-3.3945 0-6.1445-2.75-6.1445-6.1445s2.75-6.1445 6.1445-6.1445c3.3906 0 6.1406 2.75 6.1406 6.1445"/>
  <path d="m404.99 6.1445c0 3.3945-2.75 6.1445-6.1445 6.1445-3.3945 0-6.1445-2.75-6.1445-6.1445s2.75-6.1445 6.1445-6.1445c3.3945 0 6.1445 2.75 6.1445 6.1445"/>
  <path d="m119.3 24.062c0 3.3945-2.75 6.1445-6.1445 6.1445-3.3945 0-6.1445-2.75-6.1445-6.1445 0-3.3906 2.75-6.1406 6.1445-6.1406 3.3945 0 6.1445 2.75 6.1445 6.1406"/>
  <path d="m137.21 24.062c0 3.3945-2.75 6.1445-6.1445 6.1445-3.3906 0-6.1406-2.75-6.1406-6.1445 0-3.3906 2.75-6.1406 6.1406-6.1406 3.3945 0 6.1445 2.75 6.1445 6.1406"/>
  <path d="m155.14 24.062c0 3.3945-2.75 6.1445-6.1445 6.1445-3.3945 0-6.1445-2.75-6.1445-6.1445 0-3.3906 2.75-6.1406 6.1445-6.1406 3.3945 0 6.1445 2.75 6.1445 6.1406"/>
  <path d="m173.05 24.062c0 3.3945-2.75 6.1445-6.1445 6.1445-3.3906 0-6.1406-2.75-6.1406-6.1445 0-3.3906 2.75-6.1406 6.1406-6.1406 3.3945 0 6.1445 2.75 6.1445 6.1406"/>
  <path d="m190.98 24.062c0 3.3945-2.75 6.1445-6.1445 6.1445s-6.1445-2.75-6.1445-6.1445c0-3.3906 2.75-6.1406 6.1445-6.1406s6.1445 2.75 6.1445 6.1406"/>
  <path d="m208.38 24.062c0 3.3945-2.75 6.1445-6.1445 6.1445-3.3906 0-6.1406-2.75-6.1406-6.1445 0-3.3906 2.75-6.1406 6.1406-6.1406 3.3945 0 6.1445 2.75 6.1445 6.1406"/>
  <path d="m226.3 24.062c0 3.3945-2.75 6.1445-6.1445 6.1445-3.3945 0-6.1445-2.75-6.1445-6.1445 0-3.3906 2.75-6.1406 6.1445-6.1406 3.3945 0 6.1445 2.75 6.1445 6.1406"/>
  <path d="m244.22 24.062c0 3.3945-2.75 6.1445-6.1445 6.1445-3.3906 0-6.1406-2.75-6.1406-6.1445 0-3.3906 2.75-6.1406 6.1406-6.1406 3.3945 0 6.1445 2.75 6.1445 6.1406"/>
  <path d="m262.14 24.062c0 3.3945-2.75 6.1445-6.1445 6.1445s-6.1445-2.75-6.1445-6.1445c0-3.3906 2.75-6.1406 6.1445-6.1406s6.1445 2.75 6.1445 6.1406"/>
  <path d="m280.06 24.062c0 3.3945-2.75 6.1445-6.1406 6.1445-3.3945 0-6.1445-2.75-6.1445-6.1445 0-3.3906 2.75-6.1406 6.1445-6.1406 3.3906 0 6.1406 2.75 6.1406 6.1406"/>
  <path d="m297.98 24.062c0 3.3945-2.75 6.1445-6.1445 6.1445-3.3945 0-6.1445-2.75-6.1445-6.1445 0-3.3906 2.75-6.1406 6.1445-6.1406 3.3945 0 6.1445 2.75 6.1445 6.1406"/>
  <path d="m315.9 24.062c0 3.3945-2.75 6.1445-6.1406 6.1445-3.3945 0-6.1445-2.75-6.1445-6.1445 0-3.3906 2.75-6.1406 6.1445-6.1406 3.3906 0 6.1406 2.75 6.1406 6.1406"/>
  <path d="m333.31 24.062c0 3.3945-2.75 6.1445-6.1445 6.1445s-6.1445-2.75-6.1445-6.1445c0-3.3906 2.75-6.1406 6.1445-6.1406s6.1445 2.75 6.1445 6.1406"/>
  <path d="m351.23 24.062c0 3.3945-2.75 6.1445-6.1406 6.1445-3.3945 0-6.1445-2.75-6.1445-6.1445 0-3.3906 2.75-6.1406 6.1445-6.1406 3.3906 0 6.1406 2.75 6.1406 6.1406"/>
  <path d="m369.15 24.062c0 3.3945-2.75 6.1445-6.1445 6.1445-3.3945 0-6.1445-2.75-6.1445-6.1445 0-3.3906 2.75-6.1406 6.1445-6.1406 3.3945 0 6.1445 2.75 6.1445 6.1406"/>
  <path d="m387.07 24.062c0 3.3945-2.75 6.1445-6.1406 6.1445-3.3945 0-6.1445-2.75-6.1445-6.1445 0-3.3906 2.75-6.1406 6.1445-6.1406 3.3906 0 6.1406 2.75 6.1406 6.1406"/>
  <path d="m404.99 24.062c0 3.3945-2.75 6.1445-6.1445 6.1445-3.3945 0-6.1445-2.75-6.1445-6.1445 0-3.3906 2.75-6.1406 6.1445-6.1406 3.3945 0 6.1445 2.75 6.1445 6.1406"/>
  <path d="m119.3 41.984c0 3.3945-2.75 6.1445-6.1445 6.1445-3.3945 0-6.1445-2.75-6.1445-6.1445s2.75-6.1445 6.1445-6.1445c3.3945 0 6.1445 2.75 6.1445 6.1445"/>
  <path d="m137.21 41.984c0 3.3945-2.75 6.1445-6.1445 6.1445-3.3906 0-6.1406-2.75-6.1406-6.1445s2.75-6.1445 6.1406-6.1445c3.3945 0 6.1445 2.75 6.1445 6.1445"/>
  <path d="m155.14 41.984c0 3.3945-2.75 6.1445-6.1445 6.1445-3.3945 0-6.1445-2.75-6.1445-6.1445s2.75-6.1445 6.1445-6.1445c3.3945 0 6.1445 2.75 6.1445 6.1445"/>
  <path d="m173.05 41.984c0 3.3945-2.75 6.1445-6.1445 6.1445-3.3906 0-6.1406-2.75-6.1406-6.1445s2.75-6.1445 6.1406-6.1445c3.3945 0 6.1445 2.75 6.1445 6.1445"/>
  <path d="m190.98 41.984c0 3.3945-2.75 6.1445-6.1445 6.1445s-6.1445-2.75-6.1445-6.1445 2.75-6.1445 6.1445-6.1445 6.1445 2.75 6.1445 6.1445"/>
  <path d="m208.38 41.984c0 3.3945-2.75 6.1445-6.1445 6.1445-3.3906 0-6.1406-2.75-6.1406-6.1445s2.75-6.1445 6.1406-6.1445c3.3945 0 6.1445 2.75 6.1445 6.1445"/>
  <path d="m226.3 41.984c0 3.3945-2.75 6.1445-6.1445 6.1445-3.3945 0-6.1445-2.75-6.1445-6.1445s2.75-6.1445 6.1445-6.1445c3.3945 0 6.1445 2.75 6.1445 6.1445"/>
  <path d="m244.22 41.984c0 3.3945-2.75 6.1445-6.1445 6.1445-3.3906 0-6.1406-2.75-6.1406-6.1445s2.75-6.1445 6.1406-6.1445c3.3945 0 6.1445 2.75 6.1445 6.1445"/>
  <path d="m262.14 41.984c0 3.3945-2.75 6.1445-6.1445 6.1445s-6.1445-2.75-6.1445-6.1445 2.75-6.1445 6.1445-6.1445 6.1445 2.75 6.1445 6.1445"/>
  <path d="m280.06 41.984c0 3.3945-2.75 6.1445-6.1406 6.1445-3.3945 0-6.1445-2.75-6.1445-6.1445s2.75-6.1445 6.1445-6.1445c3.3906 0 6.1406 2.75 6.1406 6.1445"/>
  <path d="m297.98 41.984c0 3.3945-2.75 6.1445-6.1445 6.1445-3.3945 0-6.1445-2.75-6.1445-6.1445s2.75-6.1445 6.1445-6.1445c3.3945 0 6.1445 2.75 6.1445 6.1445"/>
  <path d="m315.9 41.984c0 3.3945-2.75 6.1445-6.1406 6.1445-3.3945 0-6.1445-2.75-6.1445-6.1445s2.75-6.1445 6.1445-6.1445c3.3906 0 6.1406 2.75 6.1406 6.1445"/>
  <path d="m333.31 41.984c0 3.3945-2.75 6.1445-6.1445 6.1445s-6.1445-2.75-6.1445-6.1445 2.75-6.1445 6.1445-6.1445 6.1445 2.75 6.1445 6.1445"/>
  <path d="m351.23 41.984c0 3.3945-2.75 6.1445-6.1406 6.1445-3.3945 0-6.1445-2.75-6.1445-6.1445s2.75-6.1445 6.1445-6.1445c3.3906 0 6.1406 2.75 6.1406 6.1445"/>
  <path d="m369.15 41.984c0 3.3945-2.75 6.1445-6.1445 6.1445-3.3945 0-6.1445-2.75-6.1445-6.1445s2.75-6.1445 6.1445-6.1445c3.3945 0 6.1445 2.75 6.1445 6.1445"/>
  <path d="m387.07 41.984c0 3.3945-2.75 6.1445-6.1406 6.1445-3.3945 0-6.1445-2.75-6.1445-6.1445s2.75-6.1445 6.1445-6.1445c3.3906 0 6.1406 2.75 6.1406 6.1445"/>
  <path d="m404.99 41.984c0 3.3945-2.75 6.1445-6.1445 6.1445-3.3945 0-6.1445-2.75-6.1445-6.1445s2.75-6.1445 6.1445-6.1445c3.3945 0 6.1445 2.75 6.1445 6.1445"/>
  <path d="m119.3 59.902c0 3.3945-2.75 6.1445-6.1445 6.1445-3.3945 0-6.1445-2.75-6.1445-6.1445 0-3.3906 2.75-6.1406 6.1445-6.1406 3.3945 0 6.1445 2.75 6.1445 6.1406"/>
  <path d="m137.21 59.902c0 3.3945-2.75 6.1445-6.1445 6.1445-3.3906 0-6.1406-2.75-6.1406-6.1445 0-3.3906 2.75-6.1406 6.1406-6.1406 3.3945 0 6.1445 2.75 6.1445 6.1406"/>
  <path d="m155.14 59.902c0 3.3945-2.75 6.1445-6.1445 6.1445-3.3945 0-6.1445-2.75-6.1445-6.1445 0-3.3906 2.75-6.1406 6.1445-6.1406 3.3945 0 6.1445 2.75 6.1445 6.1406"/>
  <path d="m173.05 59.902c0 3.3945-2.75 6.1445-6.1445 6.1445-3.3906 0-6.1406-2.75-6.1406-6.1445 0-3.3906 2.75-6.1406 6.1406-6.1406 3.3945 0 6.1445 2.75 6.1445 6.1406"/>
  <path d="m190.98 59.902c0 3.3945-2.75 6.1445-6.1445 6.1445s-6.1445-2.75-6.1445-6.1445c0-3.3906 2.75-6.1406 6.1445-6.1406s6.1445 2.75 6.1445 6.1406"/>
  <path d="m208.38 59.902c0 3.3945-2.75 6.1445-6.1445 6.1445-3.3906 0-6.1406-2.75-6.1406-6.1445 0-3.3906 2.75-6.1406 6.1406-6.1406 3.3945 0 6.1445 2.75 6.1445 6.1406"/>
  <path d="m226.3 59.902c0 3.3945-2.75 6.1445-6.1445 6.1445-3.3945 0-6.1445-2.75-6.1445-6.1445 0-3.3906 2.75-6.1406 6.1445-6.1406 3.3945 0 6.1445 2.75 6.1445 6.1406"/>
  <path d="m244.22 59.902c0 3.3945-2.75 6.1445-6.1445 6.1445-3.3906 0-6.1406-2.75-6.1406-6.1445 0-3.3906 2.75-6.1406 6.1406-6.1406 3.3945 0 6.1445 2.75 6.1445 6.1406"/>
  <path d="m262.14 59.902c0 3.3945-2.75 6.1445-6.1445 6.1445s-6.1445-2.75-6.1445-6.1445c0-3.3906 2.75-6.1406 6.1445-6.1406s6.1445 2.75 6.1445 6.1406"/>
  <path d="m280.06 59.902c0 3.3945-2.75 6.1445-6.1406 6.1445-3.3945 0-6.1445-2.75-6.1445-6.1445 0-3.3906 2.75-6.1406 6.1445-6.1406 3.3906 0 6.1406 2.75 6.1406 6.1406"/>
  <path d="m297.98 59.902c0 3.3945-2.75 6.1445-6.1445 6.1445-3.3945 0-6.1445-2.75-6.1445-6.1445 0-3.3906 2.75-6.1406 6.1445-6.1406 3.3945 0 6.1445 2.75 6.1445 6.1406"/>
  <path d="m315.9 59.902c0 3.3945-2.75 6.1445-6.1406 6.1445-3.3945 0-6.1445-2.75-6.1445-6.1445 0-3.3906 2.75-6.1406 6.1445-6.1406 3.3906 0 6.1406 2.75 6.1406 6.1406"/>
  <path d="m333.31 59.902c0 3.3945-2.75 6.1445-6.1445 6.1445s-6.1445-2.75-6.1445-6.1445c0-3.3906 2.75-6.1406 6.1445-6.1406s6.1445 2.75 6.1445 6.1406"/>
  <path d="m351.23 59.902c0 3.3945-2.75 6.1445-6.1406 6.1445-3.3945 0-6.1445-2.75-6.1445-6.1445 0-3.3906 2.75-6.1406 6.1445-6.1406 3.3906 0 6.1406 2.75 6.1406 6.1406"/>
  <path d="m369.15 59.902c0 3.3945-2.75 6.1445-6.1445 6.1445-3.3945 0-6.1445-2.75-6.1445-6.1445 0-3.3906 2.75-6.1406 6.1445-6.1406 3.3945 0 6.1445 2.75 6.1445 6.1406"/>
  <path d="m387.07 59.902c0 3.3945-2.75 6.1445-6.1406 6.1445-3.3945 0-6.1445-2.75-6.1445-6.1445 0-3.3906 2.75-6.1406 6.1445-6.1406 3.3906 0 6.1406 2.75 6.1406 6.1406"/>
  <path d="m119.3 77.824c0 3.3945-2.75 6.1445-6.1445 6.1445-3.3945 0-6.1445-2.75-6.1445-6.1445s2.75-6.1445 6.1445-6.1445c3.3945 0 6.1445 2.75 6.1445 6.1445"/>
  <path d="m137.21 77.824c0 3.3945-2.75 6.1445-6.1445 6.1445-3.3906 0-6.1406-2.75-6.1406-6.1445s2.75-6.1445 6.1406-6.1445c3.3945 0 6.1445 2.75 6.1445 6.1445"/>
  <path d="m155.14 77.824c0 3.3945-2.75 6.1445-6.1445 6.1445-3.3945 0-6.1445-2.75-6.1445-6.1445s2.75-6.1445 6.1445-6.1445c3.3945 0 6.1445 2.75 6.1445 6.1445"/>
  <path d="m173.05 77.824c0 3.3945-2.75 6.1445-6.1445 6.1445-3.3906 0-6.1406-2.75-6.1406-6.1445s2.75-6.1445 6.1406-6.1445c3.3945 0 6.1445 2.75 6.1445 6.1445"/>
  <path d="m190.98 77.824c0 3.3945-2.75 6.1445-6.1445 6.1445s-6.1445-2.75-6.1445-6.1445 2.75-6.1445 6.1445-6.1445 6.1445 2.75 6.1445 6.1445"/>
  <path d="m208.38 77.824c0 3.3945-2.75 6.1445-6.1445 6.1445-3.3906 0-6.1406-2.75-6.1406-6.1445s2.75-6.1445 6.1406-6.1445c3.3945 0 6.1445 2.75 6.1445 6.1445"/>
  <path d="m226.3 77.824c0 3.3945-2.75 6.1445-6.1445 6.1445-3.3945 0-6.1445-2.75-6.1445-6.1445s2.75-6.1445 6.1445-6.1445c3.3945 0 6.1445 2.75 6.1445 6.1445"/>
  <path d="m244.22 77.824c0 3.3945-2.75 6.1445-6.1445 6.1445-3.3906 0-6.1406-2.75-6.1406-6.1445s2.75-6.1445 6.1406-6.1445c3.3945 0 6.1445 2.75 6.1445 6.1445"/>
  <path d="m262.14 77.824c0 3.3945-2.75 6.1445-6.1445 6.1445s-6.1445-2.75-6.1445-6.1445 2.75-6.1445 6.1445-6.1445 6.1445 2.75 6.1445 6.1445"/>
  <path d="m280.06 77.824c0 3.3945-2.75 6.1445-6.1406 6.1445-3.3945 0-6.1445-2.75-6.1445-6.1445s2.75-6.1445 6.1445-6.1445c3.3906 0 6.1406 2.75 6.1406 6.1445"/>
  <path d="m297.98 77.824c0 3.3945-2.75 6.1445-6.1445 6.1445-3.3945 0-6.1445-2.75-6.1445-6.1445s2.75-6.1445 6.1445-6.1445c3.3945 0 6.1445 2.75 6.1445 6.1445"/>
  <path d="m315.9 77.824c0 3.3945-2.75 6.1445-6.1406 6.1445-3.3945 0-6.1445-2.75-6.1445-6.1445s2.75-6.1445 6.1445-6.1445c3.3906 0 6.1406 2.75 6.1406 6.1445"/>
  <path d="m333.31 77.824c0 3.3945-2.75 6.1445-6.1445 6.1445s-6.1445-2.75-6.1445-6.1445 2.75-6.1445 6.1445-6.1445 6.1445 2.75 6.1445 6.1445"/>
  <path d="m351.23 77.824c0 3.3945-2.75 6.1445-6.1406 6.1445-3.3945 0-6.1445-2.75-6.1445-6.1445s2.75-6.1445 6.1445-6.1445c3.3906 0 6.1406 2.75 6.1406 6.1445"/>
  <path d="m369.15 77.824c0 3.3945-2.75 6.1445-6.1445 6.1445-3.3945 0-6.1445-2.75-6.1445-6.1445s2.75-6.1445 6.1445-6.1445c3.3945 0 6.1445 2.75 6.1445 6.1445"/>
  <path d="m387.07 77.824c0 3.3945-2.75 6.1445-6.1406 6.1445-3.3945 0-6.1445-2.75-6.1445-6.1445s2.75-6.1445 6.1445-6.1445c3.3906 0 6.1406 2.75 6.1406 6.1445"/>
  <path d="m119.3 95.23c0 3.3945-2.75 6.1445-6.1445 6.1445-3.3945 0-6.1445-2.75-6.1445-6.1445 0-3.3906 2.75-6.1406 6.1445-6.1406 3.3945 0 6.1445 2.75 6.1445 6.1406"/>
  <path d="m137.21 95.23c0 3.3945-2.75 6.1445-6.1445 6.1445-3.3906 0-6.1406-2.75-6.1406-6.1445 0-3.3906 2.75-6.1406 6.1406-6.1406 3.3945 0 6.1445 2.75 6.1445 6.1406"/>
  <path d="m155.14 95.23c0 3.3945-2.75 6.1445-6.1445 6.1445-3.3945 0-6.1445-2.75-6.1445-6.1445 0-3.3906 2.75-6.1406 6.1445-6.1406 3.3945 0 6.1445 2.75 6.1445 6.1406"/>
  <path d="m173.05 95.23c0 3.3945-2.75 6.1445-6.1445 6.1445-3.3906 0-6.1406-2.75-6.1406-6.1445 0-3.3906 2.75-6.1406 6.1406-6.1406 3.3945 0 6.1445 2.75 6.1445 6.1406"/>
  <path d="m190.98 95.23c0 3.3945-2.75 6.1445-6.1445 6.1445s-6.1445-2.75-6.1445-6.1445c0-3.3906 2.75-6.1406 6.1445-6.1406s6.1445 2.75 6.1445 6.1406"/>
  <path d="m208.38 95.23c0 3.3945-2.75 6.1445-6.1445 6.1445-3.3906 0-6.1406-2.75-6.1406-6.1445 0-3.3906 2.75-6.1406 6.1406-6.1406 3.3945 0 6.1445 2.75 6.1445 6.1406"/>
  <path d="m226.3 95.23c0 3.3945-2.75 6.1445-6.1445 6.1445-3.3945 0-6.1445-2.75-6.1445-6.1445 0-3.3906 2.75-6.1406 6.1445-6.1406 3.3945 0 6.1445 2.75 6.1445 6.1406"/>
  <path d="m244.22 95.23c0 3.3945-2.75 6.1445-6.1445 6.1445-3.3906 0-6.1406-2.75-6.1406-6.1445 0-3.3906 2.75-6.1406 6.1406-6.1406 3.3945 0 6.1445 2.75 6.1445 6.1406"/>
  <path d="m262.14 95.23c0 3.3945-2.75 6.1445-6.1445 6.1445s-6.1445-2.75-6.1445-6.1445c0-3.3906 2.75-6.1406 6.1445-6.1406s6.1445 2.75 6.1445 6.1406"/>
  <path d="m280.06 95.23c0 3.3945-2.75 6.1445-6.1406 6.1445-3.3945 0-6.1445-2.75-6.1445-6.1445 0-3.3906 2.75-6.1406 6.1445-6.1406 3.3906 0 6.1406 2.75 6.1406 6.1406"/>
  <path d="m297.98 95.23c0 3.3945-2.75 6.1445-6.1445 6.1445-3.3945 0-6.1445-2.75-6.1445-6.1445 0-3.3906 2.75-6.1406 6.1445-6.1406 3.3945 0 6.1445 2.75 6.1445 6.1406"/>
  <path d="m315.9 95.23c0 3.3945-2.75 6.1445-6.1406 6.1445-3.3945 0-6.1445-2.75-6.1445-6.1445 0-3.3906 2.75-6.1406 6.1445-6.1406 3.3906 0 6.1406 2.75 6.1406 6.1406"/>
  <path d="m333.31 95.23c0 3.3945-2.75 6.1445-6.1445 6.1445s-6.1445-2.75-6.1445-6.1445c0-3.3906 2.75-6.1406 6.1445-6.1406s6.1445 2.75 6.1445 6.1406"/>
  <path d="m351.23 95.23c0 3.3945-2.75 6.1445-6.1406 6.1445-3.3945 0-6.1445-2.75-6.1445-6.1445 0-3.3906 2.75-6.1406 6.1445-6.1406 3.3906 0 6.1406 2.75 6.1406 6.1406"/>
  <path d="m369.15 95.23c0 3.3945-2.75 6.1445-6.1445 6.1445-3.3945 0-6.1445-2.75-6.1445-6.1445 0-3.3906 2.75-6.1406 6.1445-6.1406 3.3945 0 6.1445 2.75 6.1445 6.1406"/>
  <path d="m387.07 95.23c0 3.3945-2.75 6.1445-6.1406 6.1445-3.3945 0-6.1445-2.75-6.1445-6.1445 0-3.3906 2.75-6.1406 6.1445-6.1406 3.3906 0 6.1406 2.75 6.1406 6.1406"/>
  <path d="m404.99 95.23c0 3.3945-2.75 6.1445-6.1445 6.1445-3.3945 0-6.1445-2.75-6.1445-6.1445 0-3.3906 2.75-6.1406 6.1445-6.1406 3.3945 0 6.1445 2.75 6.1445 6.1406"/>
  <path d="m119.3 113.15c0 3.3945-2.75 6.1445-6.1445 6.1445-3.3945 0-6.1445-2.75-6.1445-6.1445 0-3.3945 2.75-6.1445 6.1445-6.1445 3.3945 0 6.1445 2.75 6.1445 6.1445"/>
  <path d="m137.21 113.15c0 3.3945-2.75 6.1445-6.1445 6.1445-3.3906 0-6.1406-2.75-6.1406-6.1445 0-3.3945 2.75-6.1445 6.1406-6.1445 3.3945 0 6.1445 2.75 6.1445 6.1445"/>
  <path d="m155.14 113.15c0 3.3945-2.75 6.1445-6.1445 6.1445-3.3945 0-6.1445-2.75-6.1445-6.1445 0-3.3945 2.75-6.1445 6.1445-6.1445 3.3945 0 6.1445 2.75 6.1445 6.1445"/>
  <path d="m173.05 113.15c0 3.3945-2.75 6.1445-6.1445 6.1445-3.3906 0-6.1406-2.75-6.1406-6.1445 0-3.3945 2.75-6.1445 6.1406-6.1445 3.3945 0 6.1445 2.75 6.1445 6.1445"/>
  <path d="m190.98 113.15c0 3.3945-2.75 6.1445-6.1445 6.1445s-6.1445-2.75-6.1445-6.1445c0-3.3945 2.75-6.1445 6.1445-6.1445s6.1445 2.75 6.1445 6.1445"/>
  <path d="m208.38 113.15c0 3.3945-2.75 6.1445-6.1445 6.1445-3.3906 0-6.1406-2.75-6.1406-6.1445 0-3.3945 2.75-6.1445 6.1406-6.1445 3.3945 0 6.1445 2.75 6.1445 6.1445"/>
  <path d="m226.3 113.15c0 3.3945-2.75 6.1445-6.1445 6.1445-3.3945 0-6.1445-2.75-6.1445-6.1445 0-3.3945 2.75-6.1445 6.1445-6.1445 3.3945 0 6.1445 2.75 6.1445 6.1445"/>
  <path d="m244.22 113.15c0 3.3945-2.75 6.1445-6.1445 6.1445-3.3906 0-6.1406-2.75-6.1406-6.1445 0-3.3945 2.75-6.1445 6.1406-6.1445 3.3945 0 6.1445 2.75 6.1445 6.1445"/>
  <path d="m262.14 113.15c0 3.3945-2.75 6.1445-6.1445 6.1445s-6.1445-2.75-6.1445-6.1445c0-3.3945 2.75-6.1445 6.1445-6.1445s6.1445 2.75 6.1445 6.1445"/>
  <path d="m280.06 113.15c0 3.3945-2.75 6.1445-6.1406 6.1445-3.3945 0-6.1445-2.75-6.1445-6.1445 0-3.3945 2.75-6.1445 6.1445-6.1445 3.3906 0 6.1406 2.75 6.1406 6.1445"/>
  <path d="m297.98 113.15c0 3.3945-2.75 6.1445-6.1445 6.1445-3.3945 0-6.1445-2.75-6.1445-6.1445 0-3.3945 2.75-6.1445 6.1445-6.1445 3.3945 0 6.1445 2.75 6.1445 6.1445"/>
  <path d="m315.9 113.15c0 3.3945-2.75 6.1445-6.1406 6.1445-3.3945 0-6.1445-2.75-6.1445-6.1445 0-3.3945 2.75-6.1445 6.1445-6.1445 3.3906 0 6.1406 2.75 6.1406 6.1445"/>
  <path d="m333.31 113.15c0 3.3945-2.75 6.1445-6.1445 6.1445s-6.1445-2.75-6.1445-6.1445c0-3.3945 2.75-6.1445 6.1445-6.1445s6.1445 2.75 6.1445 6.1445"/>
  <path d="m351.23 113.15c0 3.3945-2.75 6.1445-6.1406 6.1445-3.3945 0-6.1445-2.75-6.1445-6.1445 0-3.3945 2.75-6.1445 6.1445-6.1445 3.3906 0 6.1406 2.75 6.1406 6.1445"/>
  <path d="m369.15 113.15c0 3.3945-2.75 6.1445-6.1445 6.1445-3.3945 0-6.1445-2.75-6.1445-6.1445 0-3.3945 2.75-6.1445 6.1445-6.1445 3.3945 0 6.1445 2.75 6.1445 6.1445"/>
  <path d="m387.07 113.15c0 3.3945-2.75 6.1445-6.1406 6.1445-3.3945 0-6.1445-2.75-6.1445-6.1445 0-3.3945 2.75-6.1445 6.1445-6.1445 3.3906 0 6.1406 2.75 6.1406 6.1445"/>
  <path d="m404.99 113.15c0 3.3945-2.75 6.1445-6.1445 6.1445-3.3945 0-6.1445-2.75-6.1445-6.1445 0-3.3945 2.75-6.1445 6.1445-6.1445 3.3945 0 6.1445 2.75 6.1445 6.1445"/>
  <path d="m137.21 131.07c0 3.3945-2.75 6.1445-6.1445 6.1445-3.3906 0-6.1406-2.75-6.1406-6.1445 0-3.3906 2.75-6.1406 6.1406-6.1406 3.3945 0 6.1445 2.75 6.1445 6.1406"/>
  <path d="m155.14 131.07c0 3.3945-2.75 6.1445-6.1445 6.1445-3.3945 0-6.1445-2.75-6.1445-6.1445 0-3.3906 2.75-6.1406 6.1445-6.1406 3.3945 0 6.1445 2.75 6.1445 6.1406"/>
  <path d="m173.05 131.07c0 3.3945-2.75 6.1445-6.1445 6.1445-3.3906 0-6.1406-2.75-6.1406-6.1445 0-3.3906 2.75-6.1406 6.1406-6.1406 3.3945 0 6.1445 2.75 6.1445 6.1406"/>
  <path d="m190.98 131.07c0 3.3945-2.75 6.1445-6.1445 6.1445s-6.1445-2.75-6.1445-6.1445c0-3.3906 2.75-6.1406 6.1445-6.1406s6.1445 2.75 6.1445 6.1406"/>
  <path d="m208.38 131.07c0 3.3945-2.75 6.1445-6.1445 6.1445-3.3906 0-6.1406-2.75-6.1406-6.1445 0-3.3906 2.75-6.1406 6.1406-6.1406 3.3945 0 6.1445 2.75 6.1445 6.1406"/>
  <path d="m226.3 131.07c0 3.3945-2.75 6.1445-6.1445 6.1445-3.3945 0-6.1445-2.75-6.1445-6.1445 0-3.3906 2.75-6.1406 6.1445-6.1406 3.3945 0 6.1445 2.75 6.1445 6.1406"/>
  <path d="m244.22 131.07c0 3.3945-2.75 6.1445-6.1445 6.1445-3.3906 0-6.1406-2.75-6.1406-6.1445 0-3.3906 2.75-6.1406 6.1406-6.1406 3.3945 0 6.1445 2.75 6.1445 6.1406"/>
  <path d="m262.14 131.07c0 3.3945-2.75 6.1445-6.1445 6.1445s-6.1445-2.75-6.1445-6.1445c0-3.3906 2.75-6.1406 6.1445-6.1406s6.1445 2.75 6.1445 6.1406"/>
  <path d="m280.06 131.07c0 3.3945-2.75 6.1445-6.1406 6.1445-3.3945 0-6.1445-2.75-6.1445-6.1445 0-3.3906 2.75-6.1406 6.1445-6.1406 3.3906 0 6.1406 2.75 6.1406 6.1406"/>
  <path d="m297.98 131.07c0 3.3945-2.75 6.1445-6.1445 6.1445-3.3945 0-6.1445-2.75-6.1445-6.1445 0-3.3906 2.75-6.1406 6.1445-6.1406 3.3945 0 6.1445 2.75 6.1445 6.1406"/>
  <path d="m315.9 131.07c0 3.3945-2.75 6.1445-6.1406 6.1445-3.3945 0-6.1445-2.75-6.1445-6.1445 0-3.3906 2.75-6.1406 6.1445-6.1406 3.3906 0 6.1406 2.75 6.1406 6.1406"/>
  <path d="m333.31 131.07c0 3.3945-2.75 6.1445-6.1445 6.1445s-6.1445-2.75-6.1445-6.1445c0-3.3906 2.75-6.1406 6.1445-6.1406s6.1445 2.75 6.1445 6.1406"/>
  <path d="m351.23 131.07c0 3.3945-2.75 6.1445-6.1406 6.1445-3.3945 0-6.1445-2.75-6.1445-6.1445 0-3.3906 2.75-6.1406 6.1445-6.1406 3.3906 0 6.1406 2.75 6.1406 6.1406"/>
  <path d="m369.15 131.07c0 3.3945-2.75 6.1445-6.1445 6.1445-3.3945 0-6.1445-2.75-6.1445-6.1445 0-3.3906 2.75-6.1406 6.1445-6.1406 3.3945 0 6.1445 2.75 6.1445 6.1406"/>
  <path d="m387.07 131.07c0 3.3945-2.75 6.1445-6.1406 6.1445-3.3945 0-6.1445-2.75-6.1445-6.1445 0-3.3906 2.75-6.1406 6.1445-6.1406 3.3906 0 6.1406 2.75 6.1406 6.1406"/>
  <path d="m137.21 148.99c0 3.3945-2.75 6.1445-6.1445 6.1445-3.3906 0-6.1406-2.75-6.1406-6.1445 0-3.3945 2.75-6.1445 6.1406-6.1445 3.3945 0 6.1445 2.75 6.1445 6.1445"/>
  <path d="m155.14 148.99c0 3.3945-2.75 6.1445-6.1445 6.1445-3.3945 0-6.1445-2.75-6.1445-6.1445 0-3.3945 2.75-6.1445 6.1445-6.1445 3.3945 0 6.1445 2.75 6.1445 6.1445"/>
  <path d="m173.05 148.99c0 3.3945-2.75 6.1445-6.1445 6.1445-3.3906 0-6.1406-2.75-6.1406-6.1445 0-3.3945 2.75-6.1445 6.1406-6.1445 3.3945 0 6.1445 2.75 6.1445 6.1445"/>
  <path d="m190.98 148.99c0 3.3945-2.75 6.1445-6.1445 6.1445s-6.1445-2.75-6.1445-6.1445c0-3.3945 2.75-6.1445 6.1445-6.1445s6.1445 2.75 6.1445 6.1445"/>
  <path d="m208.38 148.99c0 3.3945-2.75 6.1445-6.1445 6.1445-3.3906 0-6.1406-2.75-6.1406-6.1445 0-3.3945 2.75-6.1445 6.1406-6.1445 3.3945 0 6.1445 2.75 6.1445 6.1445"/>
  <path d="m226.3 148.99c0 3.3945-2.75 6.1445-6.1445 6.1445-3.3945 0-6.1445-2.75-6.1445-6.1445 0-3.3945 2.75-6.1445 6.1445-6.1445 3.3945 0 6.1445 2.75 6.1445 6.1445"/>
  <path d="m244.22 148.99c0 3.3945-2.75 6.1445-6.1445 6.1445-3.3906 0-6.1406-2.75-6.1406-6.1445 0-3.3945 2.75-6.1445 6.1406-6.1445 3.3945 0 6.1445 2.75 6.1445 6.1445"/>
  <path d="m262.14 148.99c0 3.3945-2.75 6.1445-6.1445 6.1445s-6.1445-2.75-6.1445-6.1445c0-3.3945 2.75-6.1445 6.1445-6.1445s6.1445 2.75 6.1445 6.1445"/>
  <path d="m280.06 148.99c0 3.3945-2.75 6.1445-6.1406 6.1445-3.3945 0-6.1445-2.75-6.1445-6.1445 0-3.3945 2.75-6.1445 6.1445-6.1445 3.3906 0 6.1406 2.75 6.1406 6.1445"/>
  <path d="m297.98 148.99c0 3.3945-2.75 6.1445-6.1445 6.1445-3.3945 0-6.1445-2.75-6.1445-6.1445 0-3.3945 2.75-6.1445 6.1445-6.1445 3.3945 0 6.1445 2.75 6.1445 6.1445"/>
  <path d="m315.9 148.99c0 3.3945-2.75 6.1445-6.1406 6.1445-3.3945 0-6.1445-2.75-6.1445-6.1445 0-3.3945 2.75-6.1445 6.1445-6.1445 3.3906 0 6.1406 2.75 6.1406 6.1445"/>
  <path d="m333.31 148.99c0 3.3945-2.75 6.1445-6.1445 6.1445s-6.1445-2.75-6.1445-6.1445c0-3.3945 2.75-6.1445 6.1445-6.1445s6.1445 2.75 6.1445 6.1445"/>
  <path d="m351.23 148.99c0 3.3945-2.75 6.1445-6.1406 6.1445-3.3945 0-6.1445-2.75-6.1445-6.1445 0-3.3945 2.75-6.1445 6.1445-6.1445 3.3906 0 6.1406 2.75 6.1406 6.1445"/>
  <path d="m369.15 148.99c0 3.3945-2.75 6.1445-6.1445 6.1445-3.3945 0-6.1445-2.75-6.1445-6.1445 0-3.3945 2.75-6.1445 6.1445-6.1445 3.3945 0 6.1445 2.75 6.1445 6.1445"/>
  <path d="m137.21 166.91c0 3.3945-2.75 6.1445-6.1445 6.1445-3.3906 0-6.1406-2.75-6.1406-6.1445 0-3.3906 2.75-6.1406 6.1406-6.1406 3.3945 0 6.1445 2.75 6.1445 6.1406"/>
  <path d="m155.14 166.91c0 3.3945-2.75 6.1445-6.1445 6.1445-3.3945 0-6.1445-2.75-6.1445-6.1445 0-3.3906 2.75-6.1406 6.1445-6.1406 3.3945 0 6.1445 2.75 6.1445 6.1406"/>
  <path d="m173.05 166.91c0 3.3945-2.75 6.1445-6.1445 6.1445-3.3906 0-6.1406-2.75-6.1406-6.1445 0-3.3906 2.75-6.1406 6.1406-6.1406 3.3945 0 6.1445 2.75 6.1445 6.1406"/>
  <path d="m190.98 166.91c0 3.3945-2.75 6.1445-6.1445 6.1445s-6.1445-2.75-6.1445-6.1445c0-3.3906 2.75-6.1406 6.1445-6.1406s6.1445 2.75 6.1445 6.1406"/>
  <path d="m208.38 166.91c0 3.3945-2.75 6.1445-6.1445 6.1445-3.3906 0-6.1406-2.75-6.1406-6.1445 0-3.3906 2.75-6.1406 6.1406-6.1406 3.3945 0 6.1445 2.75 6.1445 6.1406"/>
  <path d="m226.3 166.91c0 3.3945-2.75 6.1445-6.1445 6.1445-3.3945 0-6.1445-2.75-6.1445-6.1445 0-3.3906 2.75-6.1406 6.1445-6.1406 3.3945 0 6.1445 2.75 6.1445 6.1406"/>
  <path d="m244.22 166.91c0 3.3945-2.75 6.1445-6.1445 6.1445-3.3906 0-6.1406-2.75-6.1406-6.1445 0-3.3906 2.75-6.1406 6.1406-6.1406 3.3945 0 6.1445 2.75 6.1445 6.1406"/>
  <path d="m262.14 166.91c0 3.3945-2.75 6.1445-6.1445 6.1445s-6.1445-2.75-6.1445-6.1445c0-3.3906 2.75-6.1406 6.1445-6.1406s6.1445 2.75 6.1445 6.1406"/>
  <path d="m280.06 166.91c0 3.3945-2.75 6.1445-6.1406 6.1445-3.3945 0-6.1445-2.75-6.1445-6.1445 0-3.3906 2.75-6.1406 6.1445-6.1406 3.3906 0 6.1406 2.75 6.1406 6.1406"/>
  <path d="m297.98 166.91c0 3.3945-2.75 6.1445-6.1445 6.1445-3.3945 0-6.1445-2.75-6.1445-6.1445 0-3.3906 2.75-6.1406 6.1445-6.1406 3.3945 0 6.1445 2.75 6.1445 6.1406"/>
  <path d="m315.9 166.91c0 3.3945-2.75 6.1445-6.1406 6.1445-3.3945 0-6.1445-2.75-6.1445-6.1445 0-3.3906 2.75-6.1406 6.1445-6.1406 3.3906 0 6.1406 2.75 6.1406 6.1406"/>
  <path d="m333.31 166.91c0 3.3945-2.75 6.1445-6.1445 6.1445s-6.1445-2.75-6.1445-6.1445c0-3.3906 2.75-6.1406 6.1445-6.1406s6.1445 2.75 6.1445 6.1406"/>
  <path d="m119.3 184.83c0 3.3945-2.75 6.1445-6.1445 6.1445-3.3945 0-6.1445-2.75-6.1445-6.1445s2.75-6.1445 6.1445-6.1445c3.3945 0 6.1445 2.75 6.1445 6.1445"/>
  <path d="m137.21 184.83c0 3.3945-2.75 6.1445-6.1445 6.1445-3.3906 0-6.1406-2.75-6.1406-6.1445s2.75-6.1445 6.1406-6.1445c3.3945 0 6.1445 2.75 6.1445 6.1445"/>
  <path d="m155.14 184.83c0 3.3945-2.75 6.1445-6.1445 6.1445-3.3945 0-6.1445-2.75-6.1445-6.1445s2.75-6.1445 6.1445-6.1445c3.3945 0 6.1445 2.75 6.1445 6.1445"/>
  <path d="m173.05 184.83c0 3.3945-2.75 6.1445-6.1445 6.1445-3.3906 0-6.1406-2.75-6.1406-6.1445s2.75-6.1445 6.1406-6.1445c3.3945 0 6.1445 2.75 6.1445 6.1445"/>
  <path d="m190.98 184.83c0 3.3945-2.75 6.1445-6.1445 6.1445s-6.1445-2.75-6.1445-6.1445 2.75-6.1445 6.1445-6.1445 6.1445 2.75 6.1445 6.1445"/>
  <path d="m208.38 184.83c0 3.3945-2.75 6.1445-6.1445 6.1445-3.3906 0-6.1406-2.75-6.1406-6.1445s2.75-6.1445 6.1406-6.1445c3.3945 0 6.1445 2.75 6.1445 6.1445"/>
  <path d="m226.3 184.83c0 3.3945-2.75 6.1445-6.1445 6.1445-3.3945 0-6.1445-2.75-6.1445-6.1445s2.75-6.1445 6.1445-6.1445c3.3945 0 6.1445 2.75 6.1445 6.1445"/>
  <path d="m244.22 184.83c0 3.3945-2.75 6.1445-6.1445 6.1445-3.3906 0-6.1406-2.75-6.1406-6.1445s2.75-6.1445 6.1406-6.1445c3.3945 0 6.1445 2.75 6.1445 6.1445"/>
  <path d="m262.14 184.83c0 3.3945-2.75 6.1445-6.1445 6.1445s-6.1445-2.75-6.1445-6.1445 2.75-6.1445 6.1445-6.1445 6.1445 2.75 6.1445 6.1445"/>
  <path d="m280.06 184.83c0 3.3945-2.75 6.1445-6.1406 6.1445-3.3945 0-6.1445-2.75-6.1445-6.1445s2.75-6.1445 6.1445-6.1445c3.3906 0 6.1406 2.75 6.1406 6.1445"/>
  <path d="m297.98 184.83c0 3.3945-2.75 6.1445-6.1445 6.1445-3.3945 0-6.1445-2.75-6.1445-6.1445s2.75-6.1445 6.1445-6.1445c3.3945 0 6.1445 2.75 6.1445 6.1445"/>
  <path d="m315.9 184.83c0 3.3945-2.75 6.1445-6.1406 6.1445-3.3945 0-6.1445-2.75-6.1445-6.1445s2.75-6.1445 6.1445-6.1445c3.3906 0 6.1406 2.75 6.1406 6.1445"/>
  <path d="m333.31 184.83c0 3.3945-2.75 6.1445-6.1445 6.1445s-6.1445-2.75-6.1445-6.1445 2.75-6.1445 6.1445-6.1445 6.1445 2.75 6.1445 6.1445"/>
  <path d="m119.3 202.24c0 3.3945-2.75 6.1445-6.1445 6.1445-3.3945 0-6.1445-2.75-6.1445-6.1445 0-3.3906 2.75-6.1406 6.1445-6.1406 3.3945 0 6.1445 2.75 6.1445 6.1406"/>
  <path d="m137.21 202.24c0 3.3945-2.75 6.1445-6.1445 6.1445-3.3906 0-6.1406-2.75-6.1406-6.1445 0-3.3906 2.75-6.1406 6.1406-6.1406 3.3945 0 6.1445 2.75 6.1445 6.1406"/>
  <path d="m155.14 202.24c0 3.3945-2.75 6.1445-6.1445 6.1445-3.3945 0-6.1445-2.75-6.1445-6.1445 0-3.3906 2.75-6.1406 6.1445-6.1406 3.3945 0 6.1445 2.75 6.1445 6.1406"/>
  <path d="m173.05 202.24c0 3.3945-2.75 6.1445-6.1445 6.1445-3.3906 0-6.1406-2.75-6.1406-6.1445 0-3.3906 2.75-6.1406 6.1406-6.1406 3.3945 0 6.1445 2.75 6.1445 6.1406"/>
  <path d="m190.98 202.24c0 3.3945-2.75 6.1445-6.1445 6.1445s-6.1445-2.75-6.1445-6.1445c0-3.3906 2.75-6.1406 6.1445-6.1406s6.1445 2.75 6.1445 6.1406"/>
  <path d="m208.38 202.24c0 3.3945-2.75 6.1445-6.1445 6.1445-3.3906 0-6.1406-2.75-6.1406-6.1445 0-3.3906 2.75-6.1406 6.1406-6.1406 3.3945 0 6.1445 2.75 6.1445 6.1406"/>
  <path d="m226.3 202.24c0 3.3945-2.75 6.1445-6.1445 6.1445-3.3945 0-6.1445-2.75-6.1445-6.1445 0-3.3906 2.75-6.1406 6.1445-6.1406 3.3945 0 6.1445 2.75 6.1445 6.1406"/>
  <path d="m244.22 202.24c0 3.3945-2.75 6.1445-6.1445 6.1445-3.3906 0-6.1406-2.75-6.1406-6.1445 0-3.3906 2.75-6.1406 6.1406-6.1406 3.3945 0 6.1445 2.75 6.1445 6.1406"/>
  <path d="m262.14 202.24c0 3.3945-2.75 6.1445-6.1445 6.1445s-6.1445-2.75-6.1445-6.1445c0-3.3906 2.75-6.1406 6.1445-6.1406s6.1445 2.75 6.1445 6.1406"/>
  <path d="m280.06 202.24c0 3.3945-2.75 6.1445-6.1406 6.1445-3.3945 0-6.1445-2.75-6.1445-6.1445 0-3.3906 2.75-6.1406 6.1445-6.1406 3.3906 0 6.1406 2.75 6.1406 6.1406"/>
  <path d="m297.98 202.24c0 3.3945-2.75 6.1445-6.1445 6.1445-3.3945 0-6.1445-2.75-6.1445-6.1445 0-3.3906 2.75-6.1406 6.1445-6.1406 3.3945 0 6.1445 2.75 6.1445 6.1406"/>
  <path d="m315.9 202.24c0 3.3945-2.75 6.1445-6.1406 6.1445-3.3945 0-6.1445-2.75-6.1445-6.1445 0-3.3906 2.75-6.1406 6.1445-6.1406 3.3906 0 6.1406 2.75 6.1406 6.1406"/>
  <path d="m333.31 202.24c0 3.3945-2.75 6.1445-6.1445 6.1445s-6.1445-2.75-6.1445-6.1445c0-3.3906 2.75-6.1406 6.1445-6.1406s6.1445 2.75 6.1445 6.1406"/>
  <path d="m119.3 220.16c0 3.3945-2.75 6.1445-6.1445 6.1445-3.3945 0-6.1445-2.75-6.1445-6.1445 0-3.3945 2.75-6.1445 6.1445-6.1445 3.3945 0 6.1445 2.75 6.1445 6.1445"/>
  <path d="m137.21 220.16c0 3.3945-2.75 6.1445-6.1445 6.1445-3.3906 0-6.1406-2.75-6.1406-6.1445 0-3.3945 2.75-6.1445 6.1406-6.1445 3.3945 0 6.1445 2.75 6.1445 6.1445"/>
  <path d="m155.14 220.16c0 3.3945-2.75 6.1445-6.1445 6.1445-3.3945 0-6.1445-2.75-6.1445-6.1445 0-3.3945 2.75-6.1445 6.1445-6.1445 3.3945 0 6.1445 2.75 6.1445 6.1445"/>
  <path d="m173.05 220.16c0 3.3945-2.75 6.1445-6.1445 6.1445-3.3906 0-6.1406-2.75-6.1406-6.1445 0-3.3945 2.75-6.1445 6.1406-6.1445 3.3945 0 6.1445 2.75 6.1445 6.1445"/>
  <path d="m190.98 220.16c0 3.3945-2.75 6.1445-6.1445 6.1445s-6.1445-2.75-6.1445-6.1445c0-3.3945 2.75-6.1445 6.1445-6.1445s6.1445 2.75 6.1445 6.1445"/>
  <path d="m208.38 220.16c0 3.3945-2.75 6.1445-6.1445 6.1445-3.3906 0-6.1406-2.75-6.1406-6.1445 0-3.3945 2.75-6.1445 6.1406-6.1445 3.3945 0 6.1445 2.75 6.1445 6.1445"/>
  <path d="m226.3 220.16c0 3.3945-2.75 6.1445-6.1445 6.1445-3.3945 0-6.1445-2.75-6.1445-6.1445 0-3.3945 2.75-6.1445 6.1445-6.1445 3.3945 0 6.1445 2.75 6.1445 6.1445"/>
  <path d="m244.22 220.16c0 3.3945-2.75 6.1445-6.1445 6.1445-3.3906 0-6.1406-2.75-6.1406-6.1445 0-3.3945 2.75-6.1445 6.1406-6.1445 3.3945 0 6.1445 2.75 6.1445 6.1445"/>
  <path d="m262.14 220.16c0 3.3945-2.75 6.1445-6.1445 6.1445s-6.1445-2.75-6.1445-6.1445c0-3.3945 2.75-6.1445 6.1445-6.1445s6.1445 2.75 6.1445 6.1445"/>
  <path d="m280.06 220.16c0 3.3945-2.75 6.1445-6.1406 6.1445-3.3945 0-6.1445-2.75-6.1445-6.1445 0-3.3945 2.75-6.1445 6.1445-6.1445 3.3906 0 6.1406 2.75 6.1406 6.1445"/>
  <path d="m297.98 220.16c0 3.3945-2.75 6.1445-6.1445 6.1445-3.3945 0-6.1445-2.75-6.1445-6.1445 0-3.3945 2.75-6.1445 6.1445-6.1445 3.3945 0 6.1445 2.75 6.1445 6.1445"/>
  <path d="m315.9 220.16c0 3.3945-2.75 6.1445-6.1406 6.1445-3.3945 0-6.1445-2.75-6.1445-6.1445 0-3.3945 2.75-6.1445 6.1445-6.1445 3.3906 0 6.1406 2.75 6.1406 6.1445"/>
  <path d="m119.3 238.08c0 3.3945-2.75 6.1445-6.1445 6.1445-3.3945 0-6.1445-2.75-6.1445-6.1445 0-3.3906 2.75-6.1406 6.1445-6.1406 3.3945 0 6.1445 2.75 6.1445 6.1406"/>
  <path d="m137.21 238.08c0 3.3945-2.75 6.1445-6.1445 6.1445-3.3906 0-6.1406-2.75-6.1406-6.1445 0-3.3906 2.75-6.1406 6.1406-6.1406 3.3945 0 6.1445 2.75 6.1445 6.1406"/>
  <path d="m155.14 238.08c0 3.3945-2.75 6.1445-6.1445 6.1445-3.3945 0-6.1445-2.75-6.1445-6.1445 0-3.3906 2.75-6.1406 6.1445-6.1406 3.3945 0 6.1445 2.75 6.1445 6.1406"/>
  <path d="m173.05 238.08c0 3.3945-2.75 6.1445-6.1445 6.1445-3.3906 0-6.1406-2.75-6.1406-6.1445 0-3.3906 2.75-6.1406 6.1406-6.1406 3.3945 0 6.1445 2.75 6.1445 6.1406"/>
  <path d="m190.98 238.08c0 3.3945-2.75 6.1445-6.1445 6.1445s-6.1445-2.75-6.1445-6.1445c0-3.3906 2.75-6.1406 6.1445-6.1406s6.1445 2.75 6.1445 6.1406"/>
  <path d="m208.38 238.08c0 3.3945-2.75 6.1445-6.1445 6.1445-3.3906 0-6.1406-2.75-6.1406-6.1445 0-3.3906 2.75-6.1406 6.1406-6.1406 3.3945 0 6.1445 2.75 6.1445 6.1406"/>
  <path d="m226.3 238.08c0 3.3945-2.75 6.1445-6.1445 6.1445-3.3945 0-6.1445-2.75-6.1445-6.1445 0-3.3906 2.75-6.1406 6.1445-6.1406 3.3945 0 6.1445 2.75 6.1445 6.1406"/>
  <path d="m244.22 238.08c0 3.3945-2.75 6.1445-6.1445 6.1445-3.3906 0-6.1406-2.75-6.1406-6.1445 0-3.3906 2.75-6.1406 6.1406-6.1406 3.3945 0 6.1445 2.75 6.1445 6.1406"/>
  <path d="m262.14 238.08c0 3.3945-2.75 6.1445-6.1445 6.1445s-6.1445-2.75-6.1445-6.1445c0-3.3906 2.75-6.1406 6.1445-6.1406s6.1445 2.75 6.1445 6.1406"/>
  <path d="m280.06 238.08c0 3.3945-2.75 6.1445-6.1406 6.1445-3.3945 0-6.1445-2.75-6.1445-6.1445 0-3.3906 2.75-6.1406 6.1445-6.1406 3.3906 0 6.1406 2.75 6.1406 6.1406"/>
  <path d="m297.98 238.08c0 3.3945-2.75 6.1445-6.1445 6.1445-3.3945 0-6.1445-2.75-6.1445-6.1445 0-3.3906 2.75-6.1406 6.1445-6.1406 3.3945 0 6.1445 2.75 6.1445 6.1406"/>
  <path d="m315.9 238.08c0 3.3945-2.75 6.1445-6.1406 6.1445-3.3945 0-6.1445-2.75-6.1445-6.1445 0-3.3906 2.75-6.1406 6.1445-6.1406 3.3906 0 6.1406 2.75 6.1406 6.1406"/>
  <path d="m119.3 256c0 3.3945-2.75 6.1445-6.1445 6.1445-3.3945 0-6.1445-2.75-6.1445-6.1445s2.75-6.1445 6.1445-6.1445c3.3945 0 6.1445 2.75 6.1445 6.1445"/>
  <path d="m137.21 256c0 3.3945-2.75 6.1445-6.1445 6.1445-3.3906 0-6.1406-2.75-6.1406-6.1445s2.75-6.1445 6.1406-6.1445c3.3945 0 6.1445 2.75 6.1445 6.1445"/>
  <path d="m155.14 256c0 3.3945-2.75 6.1445-6.1445 6.1445-3.3945 0-6.1445-2.75-6.1445-6.1445s2.75-6.1445 6.1445-6.1445c3.3945 0 6.1445 2.75 6.1445 6.1445"/>
  <path d="m173.05 256c0 3.3945-2.75 6.1445-6.1445 6.1445-3.3906 0-6.1406-2.75-6.1406-6.1445s2.75-6.1445 6.1406-6.1445c3.3945 0 6.1445 2.75 6.1445 6.1445"/>
  <path d="m190.98 256c0 3.3945-2.75 6.1445-6.1445 6.1445s-6.1445-2.75-6.1445-6.1445 2.75-6.1445 6.1445-6.1445 6.1445 2.75 6.1445 6.1445"/>
  <path d="m208.38 256c0 3.3945-2.75 6.1445-6.1445 6.1445-3.3906 0-6.1406-2.75-6.1406-6.1445s2.75-6.1445 6.1406-6.1445c3.3945 0 6.1445 2.75 6.1445 6.1445"/>
  <path d="m226.3 256c0 3.3945-2.75 6.1445-6.1445 6.1445-3.3945 0-6.1445-2.75-6.1445-6.1445s2.75-6.1445 6.1445-6.1445c3.3945 0 6.1445 2.75 6.1445 6.1445"/>
  <path d="m244.22 256c0 3.3945-2.75 6.1445-6.1445 6.1445-3.3906 0-6.1406-2.75-6.1406-6.1445s2.75-6.1445 6.1406-6.1445c3.3945 0 6.1445 2.75 6.1445 6.1445"/>
  <path d="m262.14 256c0 3.3945-2.75 6.1445-6.1445 6.1445s-6.1445-2.75-6.1445-6.1445 2.75-6.1445 6.1445-6.1445 6.1445 2.75 6.1445 6.1445"/>
  <path d="m280.06 256c0 3.3945-2.75 6.1445-6.1406 6.1445-3.3945 0-6.1445-2.75-6.1445-6.1445s2.75-6.1445 6.1445-6.1445c3.3906 0 6.1406 2.75 6.1406 6.1445"/>
  <path d="m297.98 256c0 3.3945-2.75 6.1445-6.1445 6.1445-3.3945 0-6.1445-2.75-6.1445-6.1445s2.75-6.1445 6.1445-6.1445c3.3945 0 6.1445 2.75 6.1445 6.1445"/>
  <path d="m315.9 256c0 3.3945-2.75 6.1445-6.1406 6.1445-3.3945 0-6.1445-2.75-6.1445-6.1445s2.75-6.1445 6.1445-6.1445c3.3906 0 6.1406 2.75 6.1406 6.1445"/>
  <path d="m119.3 273.92c0 3.3906-2.75 6.1406-6.1445 6.1406-3.3945 0-6.1445-2.75-6.1445-6.1406 0-3.3945 2.75-6.1445 6.1445-6.1445 3.3945 0 6.1445 2.75 6.1445 6.1445"/>
  <path d="m137.21 273.92c0 3.3906-2.75 6.1406-6.1445 6.1406-3.3906 0-6.1406-2.75-6.1406-6.1406 0-3.3945 2.75-6.1445 6.1406-6.1445 3.3945 0 6.1445 2.75 6.1445 6.1445"/>
  <path d="m155.14 273.92c0 3.3906-2.75 6.1406-6.1445 6.1406-3.3945 0-6.1445-2.75-6.1445-6.1406 0-3.3945 2.75-6.1445 6.1445-6.1445 3.3945 0 6.1445 2.75 6.1445 6.1445"/>
  <path d="m173.05 273.92c0 3.3906-2.75 6.1406-6.1445 6.1406-3.3906 0-6.1406-2.75-6.1406-6.1406 0-3.3945 2.75-6.1445 6.1406-6.1445 3.3945 0 6.1445 2.75 6.1445 6.1445"/>
  <path d="m190.98 273.92c0 3.3906-2.75 6.1406-6.1445 6.1406s-6.1445-2.75-6.1445-6.1406c0-3.3945 2.75-6.1445 6.1445-6.1445s6.1445 2.75 6.1445 6.1445"/>
  <path d="m208.38 273.92c0 3.3906-2.75 6.1406-6.1445 6.1406-3.3906 0-6.1406-2.75-6.1406-6.1406 0-3.3945 2.75-6.1445 6.1406-6.1445 3.3945 0 6.1445 2.75 6.1445 6.1445"/>
  <path d="m226.3 273.92c0 3.3906-2.75 6.1406-6.1445 6.1406-3.3945 0-6.1445-2.75-6.1445-6.1406 0-3.3945 2.75-6.1445 6.1445-6.1445 3.3945 0 6.1445 2.75 6.1445 6.1445"/>
  <path d="m244.22 273.92c0 3.3906-2.75 6.1406-6.1445 6.1406-3.3906 0-6.1406-2.75-6.1406-6.1406 0-3.3945 2.75-6.1445 6.1406-6.1445 3.3945 0 6.1445 2.75 6.1445 6.1445"/>
  <path d="m262.14 273.92c0 3.3906-2.75 6.1406-6.1445 6.1406s-6.1445-2.75-6.1445-6.1406c0-3.3945 2.75-6.1445 6.1445-6.1445s6.1445 2.75 6.1445 6.1445"/>
  <path d="m280.06 273.92c0 3.3906-2.75 6.1406-6.1406 6.1406-3.3945 0-6.1445-2.75-6.1445-6.1406 0-3.3945 2.75-6.1445 6.1445-6.1445 3.3906 0 6.1406 2.75 6.1406 6.1445"/>
  <path d="m297.98 273.92c0 3.3906-2.75 6.1406-6.1445 6.1406-3.3945 0-6.1445-2.75-6.1445-6.1406 0-3.3945 2.75-6.1445 6.1445-6.1445 3.3945 0 6.1445 2.75 6.1445 6.1445"/>
  <path d="m119.3 291.84c0 3.3945-2.75 6.1445-6.1445 6.1445-3.3945 0-6.1445-2.75-6.1445-6.1445 0-3.3945 2.75-6.1445 6.1445-6.1445 3.3945 0 6.1445 2.75 6.1445 6.1445"/>
  <path d="m137.21 291.84c0 3.3945-2.75 6.1445-6.1445 6.1445-3.3906 0-6.1406-2.75-6.1406-6.1445 0-3.3945 2.75-6.1445 6.1406-6.1445 3.3945 0 6.1445 2.75 6.1445 6.1445"/>
  <path d="m155.14 291.84c0 3.3945-2.75 6.1445-6.1445 6.1445-3.3945 0-6.1445-2.75-6.1445-6.1445 0-3.3945 2.75-6.1445 6.1445-6.1445 3.3945 0 6.1445 2.75 6.1445 6.1445"/>
  <path d="m173.05 291.84c0 3.3945-2.75 6.1445-6.1445 6.1445-3.3906 0-6.1406-2.75-6.1406-6.1445 0-3.3945 2.75-6.1445 6.1406-6.1445 3.3945 0 6.1445 2.75 6.1445 6.1445"/>
  <path d="m190.98 291.84c0 3.3945-2.75 6.1445-6.1445 6.1445s-6.1445-2.75-6.1445-6.1445c0-3.3945 2.75-6.1445 6.1445-6.1445s6.1445 2.75 6.1445 6.1445"/>
  <path d="m208.38 291.84c0 3.3945-2.75 6.1445-6.1445 6.1445-3.3906 0-6.1406-2.75-6.1406-6.1445 0-3.3945 2.75-6.1445 6.1406-6.1445 3.3945 0 6.1445 2.75 6.1445 6.1445"/>
  <path d="m226.3 291.84c0 3.3945-2.75 6.1445-6.1445 6.1445-3.3945 0-6.1445-2.75-6.1445-6.1445 0-3.3945 2.75-6.1445 6.1445-6.1445 3.3945 0 6.1445 2.75 6.1445 6.1445"/>
  <path d="m244.22 291.84c0 3.3945-2.75 6.1445-6.1445 6.1445-3.3906 0-6.1406-2.75-6.1406-6.1445 0-3.3945 2.75-6.1445 6.1406-6.1445 3.3945 0 6.1445 2.75 6.1445 6.1445"/>
  <path d="m262.14 291.84c0 3.3945-2.75 6.1445-6.1445 6.1445s-6.1445-2.75-6.1445-6.1445c0-3.3945 2.75-6.1445 6.1445-6.1445s6.1445 2.75 6.1445 6.1445"/>
  <path d="m280.06 291.84c0 3.3945-2.75 6.1445-6.1406 6.1445-3.3945 0-6.1445-2.75-6.1445-6.1445 0-3.3945 2.75-6.1445 6.1445-6.1445 3.3906 0 6.1406 2.75 6.1406 6.1445"/>
  <path d="m119.3 309.76c0 3.3906-2.75 6.1406-6.1445 6.1406-3.3945 0-6.1445-2.75-6.1445-6.1406 0-3.3945 2.75-6.1445 6.1445-6.1445 3.3945 0 6.1445 2.75 6.1445 6.1445"/>
  <path d="m137.21 309.76c0 3.3906-2.75 6.1406-6.1445 6.1406-3.3906 0-6.1406-2.75-6.1406-6.1406 0-3.3945 2.75-6.1445 6.1406-6.1445 3.3945 0 6.1445 2.75 6.1445 6.1445"/>
  <path d="m155.14 309.76c0 3.3906-2.75 6.1406-6.1445 6.1406-3.3945 0-6.1445-2.75-6.1445-6.1406 0-3.3945 2.75-6.1445 6.1445-6.1445 3.3945 0 6.1445 2.75 6.1445 6.1445"/>
  <path d="m173.05 309.76c0 3.3906-2.75 6.1406-6.1445 6.1406-3.3906 0-6.1406-2.75-6.1406-6.1406 0-3.3945 2.75-6.1445 6.1406-6.1445 3.3945 0 6.1445 2.75 6.1445 6.1445"/>
  <path d="m190.98 309.76c0 3.3906-2.75 6.1406-6.1445 6.1406s-6.1445-2.75-6.1445-6.1406c0-3.3945 2.75-6.1445 6.1445-6.1445s6.1445 2.75 6.1445 6.1445"/>
  <path d="m208.38 309.76c0 3.3906-2.75 6.1406-6.1445 6.1406-3.3906 0-6.1406-2.75-6.1406-6.1406 0-3.3945 2.75-6.1445 6.1406-6.1445 3.3945 0 6.1445 2.75 6.1445 6.1445"/>
  <path d="m226.3 309.76c0 3.3906-2.75 6.1406-6.1445 6.1406-3.3945 0-6.1445-2.75-6.1445-6.1406 0-3.3945 2.75-6.1445 6.1445-6.1445 3.3945 0 6.1445 2.75 6.1445 6.1445"/>
  <path d="m244.22 309.76c0 3.3906-2.75 6.1406-6.1445 6.1406-3.3906 0-6.1406-2.75-6.1406-6.1406 0-3.3945 2.75-6.1445 6.1406-6.1445 3.3945 0 6.1445 2.75 6.1445 6.1445"/>
  <path d="m262.14 309.76c0 3.3906-2.75 6.1406-6.1445 6.1406s-6.1445-2.75-6.1445-6.1406c0-3.3945 2.75-6.1445 6.1445-6.1445s6.1445 2.75 6.1445 6.1445"/>
  <path d="m280.06 309.76c0 3.3906-2.75 6.1406-6.1406 6.1406-3.3945 0-6.1445-2.75-6.1445-6.1406 0-3.3945 2.75-6.1445 6.1445-6.1445 3.3906 0 6.1406 2.75 6.1406 6.1445"/>
  <path d="m119.3 327.17c0 3.3945-2.75 6.1445-6.1445 6.1445-3.3945 0-6.1445-2.75-6.1445-6.1445s2.75-6.1445 6.1445-6.1445c3.3945 0 6.1445 2.75 6.1445 6.1445"/>
  <path d="m137.21 327.17c0 3.3945-2.75 6.1445-6.1445 6.1445-3.3906 0-6.1406-2.75-6.1406-6.1445s2.75-6.1445 6.1406-6.1445c3.3945 0 6.1445 2.75 6.1445 6.1445"/>
  <path d="m155.14 327.17c0 3.3945-2.75 6.1445-6.1445 6.1445-3.3945 0-6.1445-2.75-6.1445-6.1445s2.75-6.1445 6.1445-6.1445c3.3945 0 6.1445 2.75 6.1445 6.1445"/>
  <path d="m173.05 327.17c0 3.3945-2.75 6.1445-6.1445 6.1445-3.3906 0-6.1406-2.75-6.1406-6.1445s2.75-6.1445 6.1406-6.1445c3.3945 0 6.1445 2.75 6.1445 6.1445"/>
  <path d="m190.98 327.17c0 3.3945-2.75 6.1445-6.1445 6.1445s-6.1445-2.75-6.1445-6.1445 2.75-6.1445 6.1445-6.1445 6.1445 2.75 6.1445 6.1445"/>
  <path d="m208.38 327.17c0 3.3945-2.75 6.1445-6.1445 6.1445-3.3906 0-6.1406-2.75-6.1406-6.1445s2.75-6.1445 6.1406-6.1445c3.3945 0 6.1445 2.75 6.1445 6.1445"/>
  <path d="m226.3 327.17c0 3.3945-2.75 6.1445-6.1445 6.1445-3.3945 0-6.1445-2.75-6.1445-6.1445s2.75-6.1445 6.1445-6.1445c3.3945 0 6.1445 2.75 6.1445 6.1445"/>
  <path d="m244.22 327.17c0 3.3945-2.75 6.1445-6.1445 6.1445-3.3906 0-6.1406-2.75-6.1406-6.1445s2.75-6.1445 6.1406-6.1445c3.3945 0 6.1445 2.75 6.1445 6.1445"/>
  <path d="m262.14 327.17c0 3.3945-2.75 6.1445-6.1445 6.1445s-6.1445-2.75-6.1445-6.1445 2.75-6.1445 6.1445-6.1445 6.1445 2.75 6.1445 6.1445"/>
  <path d="m280.06 327.17c0 3.3945-2.75 6.1445-6.1406 6.1445-3.3945 0-6.1445-2.75-6.1445-6.1445s2.75-6.1445 6.1445-6.1445c3.3906 0 6.1406 2.75 6.1406 6.1445"/>
  <path d="m137.21 345.09c0 3.3906-2.75 6.1406-6.1445 6.1406-3.3906 0-6.1406-2.75-6.1406-6.1406 0-3.3945 2.75-6.1445 6.1406-6.1445 3.3945 0 6.1445 2.75 6.1445 6.1445"/>
  <path d="m155.14 345.09c0 3.3906-2.75 6.1406-6.1445 6.1406-3.3945 0-6.1445-2.75-6.1445-6.1406 0-3.3945 2.75-6.1445 6.1445-6.1445 3.3945 0 6.1445 2.75 6.1445 6.1445"/>
  <path d="m173.05 345.09c0 3.3906-2.75 6.1406-6.1445 6.1406-3.3906 0-6.1406-2.75-6.1406-6.1406 0-3.3945 2.75-6.1445 6.1406-6.1445 3.3945 0 6.1445 2.75 6.1445 6.1445"/>
  <path d="m190.98 345.09c0 3.3906-2.75 6.1406-6.1445 6.1406s-6.1445-2.75-6.1445-6.1406c0-3.3945 2.75-6.1445 6.1445-6.1445s6.1445 2.75 6.1445 6.1445"/>
  <path d="m208.38 345.09c0 3.3906-2.75 6.1406-6.1445 6.1406-3.3906 0-6.1406-2.75-6.1406-6.1406 0-3.3945 2.75-6.1445 6.1406-6.1445 3.3945 0 6.1445 2.75 6.1445 6.1445"/>
  <path d="m226.3 345.09c0 3.3906-2.75 6.1406-6.1445 6.1406-3.3945 0-6.1445-2.75-6.1445-6.1406 0-3.3945 2.75-6.1445 6.1445-6.1445 3.3945 0 6.1445 2.75 6.1445 6.1445"/>
  <path d="m244.22 345.09c0 3.3906-2.75 6.1406-6.1445 6.1406-3.3906 0-6.1406-2.75-6.1406-6.1406 0-3.3945 2.75-6.1445 6.1406-6.1445 3.3945 0 6.1445 2.75 6.1445 6.1445"/>
  <path d="m262.14 345.09c0 3.3906-2.75 6.1406-6.1445 6.1406s-6.1445-2.75-6.1445-6.1406c0-3.3945 2.75-6.1445 6.1445-6.1445s6.1445 2.75 6.1445 6.1445"/>
  <path d="m137.21 363.01c0 3.3945-2.75 6.1445-6.1445 6.1445-3.3906 0-6.1406-2.75-6.1406-6.1445 0-3.3945 2.75-6.1445 6.1406-6.1445 3.3945 0 6.1445 2.75 6.1445 6.1445"/>
  <path d="m155.14 363.01c0 3.3945-2.75 6.1445-6.1445 6.1445-3.3945 0-6.1445-2.75-6.1445-6.1445 0-3.3945 2.75-6.1445 6.1445-6.1445 3.3945 0 6.1445 2.75 6.1445 6.1445"/>
  <path d="m173.05 363.01c0 3.3945-2.75 6.1445-6.1445 6.1445-3.3906 0-6.1406-2.75-6.1406-6.1445 0-3.3945 2.75-6.1445 6.1406-6.1445 3.3945 0 6.1445 2.75 6.1445 6.1445"/>
  <path d="m190.98 363.01c0 3.3945-2.75 6.1445-6.1445 6.1445s-6.1445-2.75-6.1445-6.1445c0-3.3945 2.75-6.1445 6.1445-6.1445s6.1445 2.75 6.1445 6.1445"/>
  <path d="m208.38 363.01c0 3.3945-2.75 6.1445-6.1445 6.1445-3.3906 0-6.1406-2.75-6.1406-6.1445 0-3.3945 2.75-6.1445 6.1406-6.1445 3.3945 0 6.1445 2.75 6.1445 6.1445"/>
  <path d="m226.3 363.01c0 3.3945-2.75 6.1445-6.1445 6.1445-3.3945 0-6.1445-2.75-6.1445-6.1445 0-3.3945 2.75-6.1445 6.1445-6.1445 3.3945 0 6.1445 2.75 6.1445 6.1445"/>
  <path d="m244.22 363.01c0 3.3945-2.75 6.1445-6.1445 6.1445-3.3906 0-6.1406-2.75-6.1406-6.1445 0-3.3945 2.75-6.1445 6.1406-6.1445 3.3945 0 6.1445 2.75 6.1445 6.1445"/>
  <path d="m262.14 363.01c0 3.3945-2.75 6.1445-6.1445 6.1445s-6.1445-2.75-6.1445-6.1445c0-3.3945 2.75-6.1445 6.1445-6.1445s6.1445 2.75 6.1445 6.1445"/>
  <path d="m137.21 380.93c0 3.3906-2.75 6.1406-6.1445 6.1406-3.3906 0-6.1406-2.75-6.1406-6.1406 0-3.3945 2.75-6.1445 6.1406-6.1445 3.3945 0 6.1445 2.75 6.1445 6.1445"/>
  <path d="m155.14 380.93c0 3.3906-2.75 6.1406-6.1445 6.1406-3.3945 0-6.1445-2.75-6.1445-6.1406 0-3.3945 2.75-6.1445 6.1445-6.1445 3.3945 0 6.1445 2.75 6.1445 6.1445"/>
  <path d="m173.05 380.93c0 3.3906-2.75 6.1406-6.1445 6.1406-3.3906 0-6.1406-2.75-6.1406-6.1406 0-3.3945 2.75-6.1445 6.1406-6.1445 3.3945 0 6.1445 2.75 6.1445 6.1445"/>
  <path d="m190.98 380.93c0 3.3906-2.75 6.1406-6.1445 6.1406s-6.1445-2.75-6.1445-6.1406c0-3.3945 2.75-6.1445 6.1445-6.1445s6.1445 2.75 6.1445 6.1445"/>
  <path d="m208.38 380.93c0 3.3906-2.75 6.1406-6.1445 6.1406-3.3906 0-6.1406-2.75-6.1406-6.1406 0-3.3945 2.75-6.1445 6.1406-6.1445 3.3945 0 6.1445 2.75 6.1445 6.1445"/>
  <path d="m226.3 380.93c0 3.3906-2.75 6.1406-6.1445 6.1406-3.3945 0-6.1445-2.75-6.1445-6.1406 0-3.3945 2.75-6.1445 6.1445-6.1445 3.3945 0 6.1445 2.75 6.1445 6.1445"/>
  <path d="m244.22 380.93c0 3.3906-2.75 6.1406-6.1445 6.1406-3.3906 0-6.1406-2.75-6.1406-6.1406 0-3.3945 2.75-6.1445 6.1406-6.1445 3.3945 0 6.1445 2.75 6.1445 6.1445"/>
  <path d="m262.14 380.93c0 3.3906-2.75 6.1406-6.1445 6.1406s-6.1445-2.75-6.1445-6.1406c0-3.3945 2.75-6.1445 6.1445-6.1445s6.1445 2.75 6.1445 6.1445"/>
  <path d="m137.21 398.85c0 3.3945-2.75 6.1445-6.1445 6.1445-3.3906 0-6.1406-2.75-6.1406-6.1445 0-3.3945 2.75-6.1445 6.1406-6.1445 3.3945 0 6.1445 2.75 6.1445 6.1445"/>
  <path d="m155.14 398.85c0 3.3945-2.75 6.1445-6.1445 6.1445-3.3945 0-6.1445-2.75-6.1445-6.1445 0-3.3945 2.75-6.1445 6.1445-6.1445 3.3945 0 6.1445 2.75 6.1445 6.1445"/>
  <path d="m173.05 398.85c0 3.3945-2.75 6.1445-6.1445 6.1445-3.3906 0-6.1406-2.75-6.1406-6.1445 0-3.3945 2.75-6.1445 6.1406-6.1445 3.3945 0 6.1445 2.75 6.1445 6.1445"/>
  <path d="m190.98 398.85c0 3.3945-2.75 6.1445-6.1445 6.1445s-6.1445-2.75-6.1445-6.1445c0-3.3945 2.75-6.1445 6.1445-6.1445s6.1445 2.75 6.1445 6.1445"/>
  <path d="m208.38 398.85c0 3.3945-2.75 6.1445-6.1445 6.1445-3.3906 0-6.1406-2.75-6.1406-6.1445 0-3.3945 2.75-6.1445 6.1406-6.1445 3.3945 0 6.1445 2.75 6.1445 6.1445"/>
  <path d="m226.3 398.85c0 3.3945-2.75 6.1445-6.1445 6.1445-3.3945 0-6.1445-2.75-6.1445-6.1445 0-3.3945 2.75-6.1445 6.1445-6.1445 3.3945 0 6.1445 2.75 6.1445 6.1445"/>
  <path d="m244.22 398.85c0 3.3945-2.75 6.1445-6.1445 6.1445-3.3906 0-6.1406-2.75-6.1406-6.1445 0-3.3945 2.75-6.1445 6.1406-6.1445 3.3945 0 6.1445 2.75 6.1445 6.1445"/>
  <path d="m262.14 398.85c0 3.3945-2.75 6.1445-6.1445 6.1445s-6.1445-2.75-6.1445-6.1445c0-3.3945 2.75-6.1445 6.1445-6.1445s6.1445 2.75 6.1445 6.1445"/>
  <path d="m137.21 416.77c0 3.3906-2.75 6.1406-6.1445 6.1406-3.3906 0-6.1406-2.75-6.1406-6.1406 0-3.3945 2.75-6.1445 6.1406-6.1445 3.3945 0 6.1445 2.75 6.1445 6.1445"/>
  <path d="m155.14 416.77c0 3.3906-2.75 6.1406-6.1445 6.1406-3.3945 0-6.1445-2.75-6.1445-6.1406 0-3.3945 2.75-6.1445 6.1445-6.1445 3.3945 0 6.1445 2.75 6.1445 6.1445"/>
  <path d="m173.05 416.77c0 3.3906-2.75 6.1406-6.1445 6.1406-3.3906 0-6.1406-2.75-6.1406-6.1406 0-3.3945 2.75-6.1445 6.1406-6.1445 3.3945 0 6.1445 2.75 6.1445 6.1445"/>
  <path d="m190.98 416.77c0 3.3906-2.75 6.1406-6.1445 6.1406s-6.1445-2.75-6.1445-6.1406c0-3.3945 2.75-6.1445 6.1445-6.1445s6.1445 2.75 6.1445 6.1445"/>
  <path d="m208.38 416.77c0 3.3906-2.75 6.1406-6.1445 6.1406-3.3906 0-6.1406-2.75-6.1406-6.1406 0-3.3945 2.75-6.1445 6.1406-6.1445 3.3945 0 6.1445 2.75 6.1445 6.1445"/>
  <path d="m226.3 416.77c0 3.3906-2.75 6.1406-6.1445 6.1406-3.3945 0-6.1445-2.75-6.1445-6.1406 0-3.3945 2.75-6.1445 6.1445-6.1445 3.3945 0 6.1445 2.75 6.1445 6.1445"/>
  <path d="m244.22 416.77c0 3.3906-2.75 6.1406-6.1445 6.1406-3.3906 0-6.1406-2.75-6.1406-6.1406 0-3.3945 2.75-6.1445 6.1406-6.1445 3.3945 0 6.1445 2.75 6.1445 6.1445"/>
  <path d="m262.14 416.77c0 3.3906-2.75 6.1406-6.1445 6.1406s-6.1445-2.75-6.1445-6.1406c0-3.3945 2.75-6.1445 6.1445-6.1445s6.1445 2.75 6.1445 6.1445"/>
  <path d="m137.21 434.18c0 3.3945-2.75 6.1445-6.1445 6.1445-3.3906 0-6.1406-2.75-6.1406-6.1445s2.75-6.1445 6.1406-6.1445c3.3945 0 6.1445 2.75 6.1445 6.1445"/>
  <path d="m155.14 434.18c0 3.3945-2.75 6.1445-6.1445 6.1445-3.3945 0-6.1445-2.75-6.1445-6.1445s2.75-6.1445 6.1445-6.1445c3.3945 0 6.1445 2.75 6.1445 6.1445"/>
  <path d="m173.05 434.18c0 3.3945-2.75 6.1445-6.1445 6.1445-3.3906 0-6.1406-2.75-6.1406-6.1445s2.75-6.1445 6.1406-6.1445c3.3945 0 6.1445 2.75 6.1445 6.1445"/>
  <path d="m190.98 434.18c0 3.3945-2.75 6.1445-6.1445 6.1445s-6.1445-2.75-6.1445-6.1445 2.75-6.1445 6.1445-6.1445 6.1445 2.75 6.1445 6.1445"/>
  <path d="m208.38 434.18c0 3.3945-2.75 6.1445-6.1445 6.1445-3.3906 0-6.1406-2.75-6.1406-6.1445s2.75-6.1445 6.1406-6.1445c3.3945 0 6.1445 2.75 6.1445 6.1445"/>
  <path d="m226.3 434.18c0 3.3945-2.75 6.1445-6.1445 6.1445-3.3945 0-6.1445-2.75-6.1445-6.1445s2.75-6.1445 6.1445-6.1445c3.3945 0 6.1445 2.75 6.1445 6.1445"/>
  <path d="m244.22 434.18c0 3.3945-2.75 6.1445-6.1445 6.1445-3.3906 0-6.1406-2.75-6.1406-6.1445s2.75-6.1445 6.1406-6.1445c3.3945 0 6.1445 2.75 6.1445 6.1445"/>
  <path d="m262.14 434.18c0 3.3945-2.75 6.1445-6.1445 6.1445s-6.1445-2.75-6.1445-6.1445 2.75-6.1445 6.1445-6.1445 6.1445 2.75 6.1445 6.1445"/>
  <path d="m137.21 452.1c0 3.3906-2.75 6.1406-6.1445 6.1406-3.3906 0-6.1406-2.75-6.1406-6.1406 0-3.3945 2.75-6.1445 6.1406-6.1445 3.3945 0 6.1445 2.75 6.1445 6.1445"/>
  <path d="m155.14 452.1c0 3.3906-2.75 6.1406-6.1445 6.1406-3.3945 0-6.1445-2.75-6.1445-6.1406 0-3.3945 2.75-6.1445 6.1445-6.1445 3.3945 0 6.1445 2.75 6.1445 6.1445"/>
  <path d="m173.05 452.1c0 3.3906-2.75 6.1406-6.1445 6.1406-3.3906 0-6.1406-2.75-6.1406-6.1406 0-3.3945 2.75-6.1445 6.1406-6.1445 3.3945 0 6.1445 2.75 6.1445 6.1445"/>
  <path d="m190.98 452.1c0 3.3906-2.75 6.1406-6.1445 6.1406s-6.1445-2.75-6.1445-6.1406c0-3.3945 2.75-6.1445 6.1445-6.1445s6.1445 2.75 6.1445 6.1445"/>
  <path d="m208.38 452.1c0 3.3906-2.75 6.1406-6.1445 6.1406-3.3906 0-6.1406-2.75-6.1406-6.1406 0-3.3945 2.75-6.1445 6.1406-6.1445 3.3945 0 6.1445 2.75 6.1445 6.1445"/>
  <path d="m226.3 452.1c0 3.3906-2.75 6.1406-6.1445 6.1406-3.3945 0-6.1445-2.75-6.1445-6.1406 0-3.3945 2.75-6.1445 6.1445-6.1445 3.3945 0 6.1445 2.75 6.1445 6.1445"/>
  <path d="m244.22 452.1c0 3.3906-2.75 6.1406-6.1445 6.1406-3.3906 0-6.1406-2.75-6.1406-6.1406 0-3.3945 2.75-6.1445 6.1406-6.1445 3.3945 0 6.1445 2.75 6.1445 6.1445"/>
  <path d="m137.21 470.02c0 3.3945-2.75 6.1445-6.1445 6.1445-3.3906 0-6.1406-2.75-6.1406-6.1445s2.75-6.1445 6.1406-6.1445c3.3945 0 6.1445 2.75 6.1445 6.1445"/>
  <path d="m155.14 470.02c0 3.3945-2.75 6.1445-6.1445 6.1445-3.3945 0-6.1445-2.75-6.1445-6.1445s2.75-6.1445 6.1445-6.1445c3.3945 0 6.1445 2.75 6.1445 6.1445"/>
  <path d="m173.05 470.02c0 3.3945-2.75 6.1445-6.1445 6.1445-3.3906 0-6.1406-2.75-6.1406-6.1445s2.75-6.1445 6.1406-6.1445c3.3945 0 6.1445 2.75 6.1445 6.1445"/>
  <path d="m190.98 470.02c0 3.3945-2.75 6.1445-6.1445 6.1445s-6.1445-2.75-6.1445-6.1445 2.75-6.1445 6.1445-6.1445 6.1445 2.75 6.1445 6.1445"/>
  <path d="m208.38 470.02c0 3.3945-2.75 6.1445-6.1445 6.1445-3.3906 0-6.1406-2.75-6.1406-6.1445s2.75-6.1445 6.1406-6.1445c3.3945 0 6.1445 2.75 6.1445 6.1445"/>
  <path d="m226.3 470.02c0 3.3945-2.75 6.1445-6.1445 6.1445-3.3945 0-6.1445-2.75-6.1445-6.1445s2.75-6.1445 6.1445-6.1445c3.3945 0 6.1445 2.75 6.1445 6.1445"/>
  <path d="m244.22 470.02c0 3.3945-2.75 6.1445-6.1445 6.1445-3.3906 0-6.1406-2.75-6.1406-6.1445s2.75-6.1445 6.1406-6.1445c3.3945 0 6.1445 2.75 6.1445 6.1445"/>
  <path d="m137.21 487.94c0 3.3906-2.75 6.1406-6.1445 6.1406-3.3906 0-6.1406-2.75-6.1406-6.1406 0-3.3945 2.75-6.1445 6.1406-6.1445 3.3945 0 6.1445 2.75 6.1445 6.1445"/>
  <path d="m155.14 487.94c0 3.3906-2.75 6.1406-6.1445 6.1406-3.3945 0-6.1445-2.75-6.1445-6.1406 0-3.3945 2.75-6.1445 6.1445-6.1445 3.3945 0 6.1445 2.75 6.1445 6.1445"/>
  <path d="m173.05 487.94c0 3.3906-2.75 6.1406-6.1445 6.1406-3.3906 0-6.1406-2.75-6.1406-6.1406 0-3.3945 2.75-6.1445 6.1406-6.1445 3.3945 0 6.1445 2.75 6.1445 6.1445"/>
  <path d="m190.98 487.94c0 3.3906-2.75 6.1406-6.1445 6.1406s-6.1445-2.75-6.1445-6.1406c0-3.3945 2.75-6.1445 6.1445-6.1445s6.1445 2.75 6.1445 6.1445"/>
  <path d="m208.38 487.94c0 3.3906-2.75 6.1406-6.1445 6.1406-3.3906 0-6.1406-2.75-6.1406-6.1406 0-3.3945 2.75-6.1445 6.1406-6.1445 3.3945 0 6.1445 2.75 6.1445 6.1445"/>
  <path d="m226.3 487.94c0 3.3906-2.75 6.1406-6.1445 6.1406-3.3945 0-6.1445-2.75-6.1445-6.1406 0-3.3945 2.75-6.1445 6.1445-6.1445 3.3945 0 6.1445 2.75 6.1445 6.1445"/>
  <path d="m244.22 487.94c0 3.3906-2.75 6.1406-6.1445 6.1406-3.3906 0-6.1406-2.75-6.1406-6.1406 0-3.3945 2.75-6.1445 6.1406-6.1445 3.3945 0 6.1445 2.75 6.1445 6.1445"/>
  <path d="m137.21 505.86c0 3.3945-2.75 6.1445-6.1445 6.1445-3.3906 0-6.1406-2.75-6.1406-6.1445s2.75-6.1445 6.1406-6.1445c3.3945 0 6.1445 2.75 6.1445 6.1445"/>
  <path d="m155.14 505.86c0 3.3945-2.75 6.1445-6.1445 6.1445-3.3945 0-6.1445-2.75-6.1445-6.1445s2.75-6.1445 6.1445-6.1445c3.3945 0 6.1445 2.75 6.1445 6.1445"/>
  <path d="m173.05 505.86c0 3.3945-2.75 6.1445-6.1445 6.1445-3.3906 0-6.1406-2.75-6.1406-6.1445s2.75-6.1445 6.1406-6.1445c3.3945 0 6.1445 2.75 6.1445 6.1445"/>
  <path d="m190.98 505.86c0 3.3945-2.75 6.1445-6.1445 6.1445s-6.1445-2.75-6.1445-6.1445 2.75-6.1445 6.1445-6.1445 6.1445 2.75 6.1445 6.1445"/>
  <path d="m208.38 505.86c0 3.3945-2.75 6.1445-6.1445 6.1445-3.3906 0-6.1406-2.75-6.1406-6.1445s2.75-6.1445 6.1406-6.1445c3.3945 0 6.1445 2.75 6.1445 6.1445"/>
  <path d="m226.3 505.86c0 3.3945-2.75 6.1445-6.1445 6.1445-3.3945 0-6.1445-2.75-6.1445-6.1445s2.75-6.1445 6.1445-6.1445c3.3945 0 6.1445 2.75 6.1445 6.1445"/>
  <path d="m244.22 505.86c0 3.3945-2.75 6.1445-6.1445 6.1445-3.3906 0-6.1406-2.75-6.1406-6.1445s2.75-6.1445 6.1406-6.1445c3.3945 0 6.1445 2.75 6.1445 6.1445"/>
  <path d="m262.14 505.86c0 3.3945-2.75 6.1445-6.1445 6.1445s-6.1445-2.75-6.1445-6.1445 2.75-6.1445 6.1445-6.1445 6.1445 2.75 6.1445 6.1445"/>
 </g>
</svg>
